<?xml version="1.0" encoding="utf-8"?>
<!-- Generator: Adobe Illustrator 16.0.0, SVG Export Plug-In . SVG Version: 6.00 Build 0)  -->
<!DOCTYPE svg PUBLIC "-//W3C//DTD SVG 1.1//EN" "http://www.w3.org/Graphics/SVG/1.1/DTD/svg11.dtd">
<svg version="1.1" id="outlines" xmlns="http://www.w3.org/2000/svg" xmlns:xlink="http://www.w3.org/1999/xlink" x="0px" y="0px"
	 width="1043.58px" height="140px" viewBox="0 0 1043.58 140" enable-background="new 0 0 1043.58 140" xml:space="preserve">
<g>
	<path d="M223.158,124.822c-4.768,3.528-8.474,5.114-13.945,5.114c-9.888,0-14.655-5.299-14.655-18.356V53.141h25.247v-6.709
		h-25.247V24.54h-3.529c-4.538,8.658-10.48,16.325-17.629,21.891h-27.037V23.658c0-12.71,4.235-19.42,11.652-19.42
		c6.178,0,8.474,4.589,8.474,11.299c0,2.471-0.178,4.235-0.531,6.002h9.181c3.178-1.767,5.121-4.942,5.121-8.828
		C180.259,4.414,173.902,0,161.721,0c-19.066,0-31.25,11.831-31.25,33.546v11.828l-13.063,5.296v2.471h13.063v71.682
		c0,6.166-2.308,7.931-9.511,8.62c-4.69-0.701-8.345-1.787-10.265-6.506L63.733,12.712H46.078l4.945,11.652L10.417,126.937
		c-1.764,4.771-5.474,5.828-10.417,6.529v4.77h34.779v-4.77c-12.003-0.351-16.063-2.293-16.063-7.765
		c0-1.942,0.704-4.414,1.765-7.063l9.356-23.833h50.316l9.885,24.012c1.061,2.649,1.768,4.942,1.768,7.062
		c0,5.472-4.061,7.236-15.891,7.587v4.77h42.376h2.819h40.965v-4.586c-11.652-0.534-15.712-1.942-15.712-8.827V53.141h20.655h12.006
		v61.084c0,18.891,9.71,25.775,22.419,25.775c10.945,0,18.716-6.351,23.305-13.063L223.158,124.822z M31.954,89.155l22.598-57.376
		l23.305,57.376H31.954z"/>
	<path d="M298.546,79.626v3.701h-58.615c-1.236,28.604,12.888,44.846,31.25,44.846c12.709,0,20.302-6.006,26.48-15.713l2.121,1.063
		C295.543,128.879,283.362,140,265,140c-25.069,0-39.368-20.305-39.368-45.018c0-28.954,16.948-50.316,39.721-50.316
		C287.069,44.667,298.546,59.851,298.546,79.626z M240.463,78.213h42.724c0-15.891-5.474-27.897-19.244-27.897
		C250.348,50.316,242.227,62.497,240.463,78.213z"/>
	<path d="M332.442,124.822c0,6.885,4.061,8.293,15.713,8.827v4.586h-43.785v-4.586c9.356-0.534,12.181-1.942,12.181-8.827V61.615
		l-11.474-6.178v-1.943l25.951-8.828h2.121l-0.707,25.069c9.71-18.006,13.945-25.069,23.833-25.069c3.178,0,5.471,1.236,6.707,2.825
		v13.242h-2.471c-10.768,0-18.184,0.882-28.069,12.888V124.822z"/>
	<path d="M425.129,46.431h25.244v6.709h-25.244v58.439c0,13.058,4.767,18.356,14.652,18.356c5.477,0,9.184-1.586,13.948-5.114
		l1.592,2.114C450.73,133.649,442.96,140,432.014,140c-12.709,0-22.419-6.885-22.419-25.775V53.141h-12.006v-2.471
		c10.063-5.474,18.184-15.006,24.009-26.129h3.532V46.431z"/>
	<path d="M468.563,16.948l-11.477-6.178V8.828L482.333,0h2.115v61.439c8.299-9.181,18.54-16.773,32.132-16.773
		c16.242,0,23.834,9.888,23.834,28.955v51.201c0,6.885,2.827,8.293,12.184,8.827v4.586h-40.253v-4.586
		c9.356-0.534,12.179-1.942,12.179-8.827v-51.38c0-13.063-5.294-18.534-15.713-18.534c-9,0-17.649,4.942-24.362,10.767v59.147
		c0,6.885,2.828,8.293,12.184,8.827v4.586h-40.253v-4.586c9.356-0.534,12.184-1.942,12.184-8.827V16.948z"/>
	<path d="M628.161,79.626v3.701h-58.615c-1.235,28.604,12.891,44.846,31.247,44.846c12.713,0,20.305-6.006,26.483-15.713l2.12,1.063
		C625.161,128.879,612.977,140,594.615,140c-25.069,0-39.368-20.305-39.368-45.018c0-28.954,16.948-50.316,39.725-50.316
		C616.684,44.667,628.161,59.851,628.161,79.626z M570.075,78.213h42.724c0-15.891-5.472-27.897-19.241-27.897
		C579.966,50.316,571.845,62.497,570.075,78.213z"/>
	<path d="M750.155,124.822c0,6.885,2.821,8.293,12.178,8.827v4.586h-40.247v-4.586c9.356-0.534,12.179-1.942,12.179-8.827V19.951
		c-3.351-8.299-9.707-15.538-20.478-15.538c-11.655,0-17.305,7.946-17.305,24.719v17.299h22.776v6.709h-22.776v71.682
		c0,6.885,2.828,8.293,12.185,8.827v4.586h-40.253v-4.586c9.356-0.534,12.184-1.942,12.184-8.827V53.141h-13.063v-2.471
		l13.063-5.296V33.546c0-21.54,14.121-33.546,33.54-33.546c7.948,0,14.299,1.942,19.948,5.649L748.034,0h2.121V124.822z"/>
	<path d="M765.339,94.626c0-30.362,18.54-49.959,42.018-49.959c24.719,0,40.96,18.713,40.96,45.374
		c0,30.368-18.535,49.96-42.018,49.96C781.58,140,765.339,121.638,765.339,94.626z M831.546,94.454
		c0-23.305-7.948-44.313-25.069-44.313c-15.712,0-24.361,16.242-24.361,40.072c0,23.311,7.942,44.315,25.068,44.315
		C822.896,134.528,831.546,118.287,831.546,94.454z"/>
	<path d="M858.201,94.626c0-30.362,18.54-49.959,42.018-49.959c24.718,0,40.959,18.713,40.959,45.374
		c0,30.368-18.534,49.96-42.017,49.96C874.442,140,858.201,121.638,858.201,94.626z M924.408,94.454
		c0-23.305-7.948-44.313-25.069-44.313c-15.713,0-24.362,16.242-24.362,40.072c0,23.311,7.943,44.315,25.069,44.315
		C915.759,134.528,924.408,118.287,924.408,94.454z"/>
	<path d="M1003.327,10.77V8.828L1028.575,0h2.114v121.109c0,6,0.356,7.241,8.299,8.126l4.592,0.529v3.701L1016.747,140h-2.649
		l0.707-16.241c-7.063,9.178-15.54,16.241-28.247,16.241c-21.891,0-35.488-18.362-35.488-43.253c0-32.129,18.54-52.081,43.08-52.081
		c9,0,16.063,2.825,20.655,7.063V16.948L1003.327,10.77z M966.075,89.684c0,21.541,9.712,38.667,28.425,38.667
		c8.477,0,15.184-3,20.305-8.655V75.563c0-16.066-8.649-25.954-20.655-25.954C977.023,49.609,966.075,65.675,966.075,89.684z"/>
</g>
</svg>
