<?xml version="1.0" encoding="utf-8"?>
<!-- Generator: Adobe Illustrator 18.1.1, SVG Export Plug-In . SVG Version: 6.00 Build 0)  -->
<!DOCTYPE svg PUBLIC "-//W3C//DTD SVG 1.1//EN" "http://www.w3.org/Graphics/SVG/1.1/DTD/svg11.dtd">
<svg version="1.1" xmlns="http://www.w3.org/2000/svg" xmlns:xlink="http://www.w3.org/1999/xlink" x="0px" y="0px"
	 viewBox="0 0 872 512" enable-background="new 0 0 872 512" xml:space="preserve">
<g id="blocks">
	<rect x="330" y="220" fill="#7C7C7C" width="102" height="102"/>
	<rect x="440" y="220" fill="#969696" width="102" height="102"/>
	<rect x="550" y="220" fill="#BCBCBC" width="102" height="102"/>
	<rect x="660" y="220" fill="#BCBCBC" width="102" height="102"/>
	<rect x="770" y="220" fill="#7C7C7C" width="102" height="102"/>
	<rect y="220" fill="#969696" width="102" height="102"/>
	<rect x="110" y="220" fill="#DCDCDC" width="102" height="102"/>
	<rect x="220" y="220" fill="#BCBCBC" width="102" height="102"/>
	<rect y="330" fill="#7C7C7C" width="102" height="102"/>
	<rect x="110" y="330" fill="#505050" width="102" height="102"/>
	<rect x="220" y="330" fill="#7C7C7C" width="102" height="102"/>
	<rect x="110" y="440" fill="#505050" width="102" height="72"/>
	<rect x="220" y="440" fill="#969696" width="102" height="72"/>
	<rect x="330" y="110" fill="#505050" width="102" height="102"/>
	<rect x="440" y="110" fill="#7C7C7C" width="102" height="102"/>
	<rect x="550" y="110" fill="#7C7C7C" width="102" height="102"/>
	<rect x="440" fill="#505050" width="102" height="102"/>
	<rect x="220" y="110" fill="#969696" width="102" height="102"/>
	<g>
		<path fill="#DCDCDC" d="M770,330v98.3c2.4,0.4,4.6,0.9,6.9,1.3c5.7,1.2,11.1,2.3,18.1,2.3h77V330H770z"/>
	</g>
	<g>
		<path fill="#DCDCDC" d="M662.4,427.4c8.2,5.6,18.5,12.6,38.6,12.6c12.6,0,21.8-3.6,30.7-7.1c7.7-3,14.9-5.9,23.3-5.9
			c2.5,0,4.8,0.1,7,0.3V330H660v95.8C660.8,426.3,661.6,426.9,662.4,427.4z"/>
	</g>
	<g>
		<path fill="#DCDCDC" d="M565.5,434.3c4.5-1.8,8-5.2,11.3-8.6c4.9-4.9,10.5-10.5,19.6-9.7c12.8,1.2,14,17.7,14.6,25.7
			c0.3,4,1.7,7.2,4.1,9.2c2.1,1.8,5,2.5,8.5,2.1c5.9-0.6,9.2-2.9,8.4-12.7l0-0.6c-0.5-6-1.5-18.5,10.6-19.7c3.5-0.3,6.5,0.2,9.4,1.4
			V330H550v107.7C555.5,437.3,560.5,436.3,565.5,434.3z"/>
	</g>
	<g>
		<path fill="#DCDCDC" d="M528.6,445l-0.2,0l-84.3-12c-1.5-0.1-2.8-0.3-4.2-0.4V512h102v-66.1C537.7,445.8,533.3,445.5,528.6,445z"
			/>
	</g>
	<g>
		<path fill="#7C7C7C" d="M775.2,437.5c-1.7-0.4-3.4-0.7-5.2-1V512h102v-72h-77C787.2,440,781.1,438.7,775.2,437.5z"/>
	</g>
	<g>
		<path fill="#7C7C7C" d="M424,431c-10.5,0-18.3,4.4-26.6,9c-8.8,4.9-17.9,10-30.4,10c-9.5,0-15.6-2.7-21.5-5.3
			c-4.7-2.1-9.2-4.1-15.5-4.6V512h102v-80.5C429.5,431.2,426.9,431,424,431z"/>
	</g>
	<g>
		<path fill="#505050" d="M348.7,437.4c5.4,2.4,10.5,4.6,18.3,4.6c10.4,0,18.3-4.4,26.5-9c8.8-4.9,17.9-10,30.5-10
			c2.9,0,5.5,0.2,8,0.5V330H330v102.1C338,432.6,343.4,435,348.7,437.4z"/>
	</g>
	<g>
		<path fill="none" d="M445,425l0.2,0l84.3,12c4.5,0.5,8.6,0.8,12.5,0.9V330H440v94.5C441.6,424.7,443.2,424.9,445,425z"/>
	</g>
	<g>
		<path fill="#BCBCBC" d="M643.4,428c-3.2,0.3-4.2,2-3.5,11.1l0.1,0.6c1,12.9-4.2,20.1-15.6,21.3c-0.9,0.1-1.7,0.1-2.6,0.1
			c-4.6,0-8.7-1.4-11.9-4.1c-4-3.4-6.5-8.6-6.9-14.7c-0.6-8.8-2-17.8-7.4-18.3c-5.1-0.5-8.2,2.4-13.2,7.4c-3.7,3.7-7.9,7.9-14,10.4
			c-6,2.4-12,3.6-18.5,4V512h102v-81.8C649.1,428.6,646.4,427.7,643.4,428z"/>
	</g>
	<g>
		<path fill="#DCDCDC" d="M755,435c-6.9,0-13.1,2.5-20.3,5.3c-9.1,3.6-19.5,7.7-33.7,7.7c-20.8,0-32.5-6.9-41-12.6V512h102v-76.7
			C759.8,435.1,757.5,435,755,435z"/>
	</g>
</g>
<g id="type">
	<g>
		<path d="M237.2,134v-5h-5v5h-2.3v-12h2.3v4.7h5V122h2.3v12H237.2z"/>
		<path d="M242.2,134v-8.5h2.1l0.1,1c0.7-0.8,1.3-1.1,2-1.1c0.3,0,0.5,0,0.8,0.1v2.1c-0.1,0-0.3,0-0.3,0c-0.8,0-1.4,0.2-1.8,0.6
			c-0.6,0.5-0.7,0.9-0.7,2.1v3.8H242.2z"/>
		<path d="M258.5,134h-2.7l-1.4-5.1l-1.2,5.1h-2.8l-2.3-8.5h2.3l1.4,5.8l1.4-5.8h2.4l1.5,5.8l1.4-5.8h2.4L258.5,134z"/>
		<path fill="#505050" d="M231.3,153c0.6,1,1.1,1.3,2,1.3c1,0,1.7-0.4,2.1-1.2c0.3-0.5,0.4-1.1,0.4-2.1c-0.9,0.8-1.6,1.1-2.8,1.1
			c-2.2,0-3.8-1.6-3.8-3.9c0-2.5,1.7-4.2,4.1-4.2c1.6,0,3,0.8,3.7,2.1c0.5,0.9,0.8,2.3,0.8,4.1c0,2.1-0.4,3.5-1.2,4.5
			c-0.8,1-2.1,1.5-3.4,1.5c-1.8,0-3.1-0.9-3.7-2.6L231.3,153z M231.3,148.1c0,1.3,0.9,2.3,2.1,2.3c1.3,0,2.3-0.9,2.3-2.1
			c0-1.5-0.9-2.5-2.2-2.5C232.2,145.8,231.3,146.7,231.3,148.1z"/>
		<path fill="#505050" d="M241.7,155c0,0.6-0.5,1.1-1.1,1.1c-0.6,0-1.1-0.5-1.1-1.1c0-0.6,0.5-1.1,1.1-1.1
			C241.2,153.9,241.7,154.4,241.7,155z"/>
		<path fill="#505050" d="M251.8,156h-2v-2.3h-6.3v-2.1l5.8-7.5h2.6v7.8h1.7v1.8h-1.7V156z M249.8,146.3l-4.2,5.5h4.2V146.3z"/>
	</g>
	<g>
		<path fill="#D2D2D2" d="M344.7,122c1.2,0,2,0.2,2.7,0.6c1,0.6,1.6,1.6,1.6,2.8c0,1-0.4,1.7-1.3,2.3c0.6,0.3,0.8,0.5,1.1,0.7
			c0.5,0.4,0.7,1.2,0.7,2c0,1.4-0.5,2.3-1.8,3c-0.9,0.5-1.8,0.7-3,0.7h-4.8v-12H344.7z M344.4,126.9c0.6,0,1-0.1,1.3-0.3
			c0.5-0.2,0.8-0.7,0.8-1.2c0-0.4-0.3-0.9-0.6-1.1c-0.3-0.2-0.6-0.2-1.4-0.2h-2.2v2.7H344.4z M344.9,131.7c0.6,0,1-0.1,1.3-0.2
			c0.5-0.2,0.8-0.7,0.8-1.3c0-0.6-0.3-1-0.9-1.3c-0.4-0.2-0.7-0.2-1.6-0.2h-2.2v3H344.9z"/>
		<path fill="#D2D2D2" d="M351.4,134v-8.5h2.1l0.1,1c0.7-0.8,1.3-1.1,2-1.1c0.3,0,0.5,0,0.8,0.1v2.1c-0.1,0-0.3,0-0.3,0
			c-0.8,0-1.4,0.2-1.8,0.6c-0.6,0.5-0.7,0.9-0.7,2.1v3.8H351.4z"/>
		<path fill="#D2D2D2" d="M363.2,134v-4.9c0-1.1-0.5-1.7-1.4-1.7c-0.6,0-1.1,0.3-1.4,0.7c-0.3,0.4-0.4,0.8-0.4,1.7v4.3h-2.3v-8.5
			h2.1l0.1,0.6c0.8-0.7,1.4-0.9,2.3-0.9c1.1,0,2,0.5,2.6,1.3c0.4,0.6,0.6,1.2,0.6,2.5v5H363.2z"/>
		<path fill="#B4B4B4" d="M341.4,148.4c0.9-0.5,1.5-0.7,2.3-0.7c2.3,0,3.9,1.8,3.9,4.2c0,2.5-1.7,4.2-4.3,4.2
			c-2.1,0-3.7-1.2-4.3-3.1l1.9-0.5c0.5,1.3,1.2,1.8,2.3,1.8c1.4,0,2.4-1,2.4-2.4c0-1.5-1-2.5-2.3-2.5c-1,0-1.6,0.3-2.1,1.2l-2-0.4
			l1-6.1h6.8v1.9h-5.2L341.4,148.4z"/>
		<path fill="#B4B4B4" d="M351.3,155c0,0.6-0.5,1.1-1.1,1.1c-0.6,0-1.1-0.5-1.1-1.1c0-0.6,0.5-1.1,1.1-1.1
			C350.9,153.9,351.3,154.4,351.3,155z"/>
		<path fill="#B4B4B4" d="M355.9,148.4c0.9-0.5,1.5-0.7,2.3-0.7c2.3,0,3.9,1.8,3.9,4.2c0,2.5-1.7,4.2-4.3,4.2
			c-2.1,0-3.7-1.2-4.3-3.1l1.9-0.5c0.5,1.3,1.2,1.8,2.3,1.8c1.4,0,2.4-1,2.4-2.4c0-1.5-1-2.5-2.3-2.5c-1,0-1.6,0.3-2.1,1.2l-2-0.4
			l1-6.1h6.8v1.9h-5.2L355.9,148.4z"/>
	</g>
	<g>
		<path d="M457.2,134v-5h-5v5h-2.3v-12h2.3v4.7h5V122h2.3v12H457.2z"/>
		<path d="M469.7,132.4c0,1.3,0,1.6-0.2,2.1c-0.3,0.8-0.7,1.4-1.5,1.7c-0.7,0.3-1.6,0.5-2.4,0.5c-1.3,0-2.8-0.4-3.8-1l0.9-1.7
			c1.1,0.6,2,0.8,3,0.8c1.2,0,1.8-0.5,1.8-1.6c0-0.1,0-0.2,0-0.4c-0.9,0.5-1.4,0.6-2.1,0.6c-2.1,0-3.7-1.7-3.7-4
			c0-1.5,0.6-2.8,1.8-3.5c0.6-0.4,1.4-0.6,2.1-0.6c0.7,0,1.3,0.2,1.9,0.6l0.1-0.4h2.1V132.4z M463.8,129.5c0,1.3,0.7,2.1,1.9,2.1
			c1.2,0,1.8-0.7,1.8-2.2c0-0.9-0.2-1.4-0.6-1.7c-0.3-0.2-0.7-0.4-1.1-0.4C464.6,127.2,463.8,128.2,463.8,129.5z"/>
		<path d="M476,134.5c-0.4,1.1-0.6,1.5-0.9,1.7c-0.4,0.3-1.1,0.6-1.9,0.6c-0.5,0-1.1-0.1-1.8-0.3l0.2-1.8c0.5,0.1,0.8,0.2,1.2,0.2
			c0.6,0,1-0.3,1-0.8c0-0.2,0-0.2-0.2-0.8l-2.8-7.7h2.4l1.7,5.4l1.7-5.4h2.3L476,134.5z"/>
		<path fill="#505050" d="M457.2,150.6c0.4,0.5,0.6,1.2,0.6,2c0,2.1-1.7,3.5-4.2,3.5c-2.5,0-4.2-1.5-4.2-3.6c0-1.2,0.5-2,1.6-2.6
			c-1-0.6-1.5-1.4-1.5-2.5c0-2,1.6-3.4,4-3.4c2.4,0,4,1.4,4,3.3c0,1.2-0.5,2-1.4,2.5C456.7,150.1,456.9,150.3,457.2,150.6z
			 M451.3,152.5c0,1.1,0.9,1.8,2.3,1.8c1.4,0,2.2-0.7,2.2-1.7c0-1.2-0.8-1.9-2.2-1.9C452.2,150.7,451.3,151.4,451.3,152.5z
			 M451.5,147.5c0,1,0.7,1.6,2,1.6c1.3,0,2.1-0.6,2.1-1.6c0-1-0.8-1.7-2.1-1.7C452.3,145.8,451.5,146.5,451.5,147.5z"/>
		<path fill="#505050" d="M461.8,155c0,0.6-0.5,1.1-1.1,1.1c-0.6,0-1.1-0.5-1.1-1.1c0-0.6,0.5-1.1,1.1-1.1
			C461.3,153.9,461.8,154.4,461.8,155z"/>
		<path fill="#505050" d="M464.3,147.6c0.3-2.4,1.6-3.6,4.1-3.6c2.6,0,4.1,1.3,4.1,3.5c0,1.2-0.5,1.9-1.4,2.4c1,0.5,1.4,1.3,1.4,2.5
			c0,2.2-1.6,3.6-4.1,3.6c-2.5,0-3.9-1.1-4.4-3.5l2-0.3c0.2,0.9,0.3,1.2,0.7,1.5c0.4,0.4,1,0.6,1.7,0.6c1.3,0,2.1-0.7,2.1-1.9
			c0-0.6-0.3-1.2-0.7-1.4c-0.4-0.2-0.8-0.3-1.6-0.3h-0.6v-1.6h0.6c1.7,0,2.3-0.4,2.3-1.5c0-1.1-0.8-1.8-2.1-1.8
			c-0.9,0-1.5,0.3-1.9,0.8c-0.2,0.3-0.3,0.6-0.4,1.3L464.3,147.6z"/>
	</g>
	<g>
		<path d="M571.1,134h-3l-1.8-8.5l-1.7,8.5h-2.9l-2.9-12h2.6l1.9,8.4l1.7-8.4h2.8l1.8,8.4l1.7-8.4h2.6L571.1,134z"/>
		<path d="M580.6,133.6c-0.7,0.3-1.4,0.4-2.3,0.4c-1,0-1.8-0.3-2.1-0.8c-0.3-0.4-0.3-0.7-0.3-1.7v-4.5h-1.3v-1.9h1.3v-2.8l2.3-0.6
			v3.4h2.1v1.9h-2.1v3.5c0,1,0.2,1.3,1.1,1.3c0.3,0,0.5,0,0.9-0.1L580.6,133.6z"/>
		<path d="M587.3,134v-4.8c0-1.2-0.5-1.8-1.5-1.8c-0.5,0-1,0.3-1.4,0.7c-0.3,0.4-0.4,0.8-0.4,1.5v4.4h-2.2v-12h2.2v4.1
			c0.9-0.6,1.5-0.8,2.2-0.8c1.1,0,2,0.4,2.6,1.2c0.5,0.6,0.6,1.1,0.6,2.4v5H587.3z"/>
		<path fill="#505050" d="M566.5,145.9l-4.4,10.1H560l4.3-10h-6.1v-1.9h8.2V145.9z"/>
		<path fill="#505050" d="M569,155c0,0.6-0.5,1.1-1.1,1.1c-0.6,0-1.1-0.5-1.1-1.1c0-0.6,0.5-1.1,1.1-1.1
			C568.6,153.9,569,154.4,569,155z"/>
		<path fill="#505050" d="M571.5,147.6c0.3-2.4,1.6-3.6,4.1-3.6c2.6,0,4.1,1.3,4.1,3.5c0,1.2-0.5,1.9-1.4,2.4c1,0.5,1.4,1.3,1.4,2.5
			c0,2.2-1.6,3.6-4.1,3.6c-2.5,0-3.9-1.1-4.4-3.5l2-0.3c0.2,0.9,0.3,1.2,0.7,1.5c0.4,0.4,1,0.6,1.7,0.6c1.3,0,2.1-0.7,2.1-1.9
			c0-0.6-0.3-1.2-0.7-1.4c-0.4-0.2-0.8-0.3-1.6-0.3h-0.6v-1.6h0.6c1.7,0,2.3-0.4,2.3-1.5c0-1.1-0.8-1.8-2.1-1.8
			c-0.9,0-1.5,0.3-1.9,0.8c-0.2,0.3-0.3,0.6-0.4,1.3L571.5,147.6z"/>
	</g>
	<g>
		<path fill="#D2D2D2" d="M449.9,24V12h7.9v2.3h-5.5v2.6h4.9v2.2h-4.9v2.7h6V24H449.9z"/>
		<path fill="#D2D2D2" d="M465.9,24v-4.9c0-1.1-0.5-1.7-1.4-1.7c-0.6,0-1.1,0.3-1.4,0.7c-0.3,0.4-0.4,0.8-0.4,1.7V24h-2.3v-8.5h2.1
			l0.1,0.6c0.8-0.7,1.4-0.9,2.3-0.9c1.1,0,2,0.5,2.6,1.3c0.4,0.6,0.6,1.2,0.6,2.5v5H465.9z"/>
		<path fill="#D2D2D2" d="M470.9,24v-6.6h-1.3v-1.9h1.3l0-0.3l0-1c0-1.5,0.9-2.2,2.7-2.2c0.6,0,1.2,0.1,1.9,0.2l-0.3,1.8
			c-0.4-0.1-0.6-0.1-0.8-0.1c-0.5,0-0.8,0.1-1,0.4c-0.1,0.2-0.2,0.4-0.2,1.2h1.8v1.9h-1.8V24H470.9z"/>
		<path fill="#B4B4B4" d="M457.2,40.6c0.4,0.5,0.6,1.2,0.6,2c0,2.1-1.7,3.5-4.2,3.5c-2.5,0-4.2-1.5-4.2-3.6c0-1.2,0.5-2,1.6-2.6
			c-1-0.6-1.5-1.4-1.5-2.5c0-2,1.6-3.4,4-3.4c2.4,0,4,1.4,4,3.3c0,1.2-0.5,2-1.4,2.5C456.7,40.1,456.9,40.3,457.2,40.6z M451.3,42.5
			c0,1.1,0.9,1.8,2.3,1.8c1.4,0,2.2-0.7,2.2-1.7c0-1.2-0.8-1.9-2.2-1.9C452.2,40.7,451.3,41.4,451.3,42.5z M451.5,37.5
			c0,1,0.7,1.6,2,1.6c1.3,0,2.1-0.6,2.1-1.6c0-1-0.8-1.7-2.1-1.7C452.3,35.8,451.5,36.5,451.5,37.5z"/>
		<path fill="#B4B4B4" d="M461.8,45c0,0.6-0.5,1.1-1.1,1.1c-0.6,0-1.1-0.5-1.1-1.1c0-0.6,0.5-1.1,1.1-1.1
			C461.3,43.9,461.8,44.4,461.8,45z"/>
		<path fill="#B4B4B4" d="M473.3,40.1c0,3.6-1.8,6-4.5,6c-2.9,0-4.6-2.2-4.6-6c0-2.1,0.5-3.7,1.3-4.6c0.8-0.9,1.9-1.4,3.2-1.4
			C471.6,34,473.3,36.3,473.3,40.1z M466.1,40c0,2.8,0.9,4.2,2.6,4.2s2.7-1.5,2.7-4.1c0-2.8-1-4.3-2.7-4.3
			C467,35.8,466.1,37.2,466.1,40z"/>
	</g>
	<g>
		<path d="M234.7,232c1.2,0,2,0.2,2.7,0.6c1,0.6,1.6,1.6,1.6,2.8c0,1-0.4,1.7-1.3,2.3c0.6,0.3,0.8,0.5,1.1,0.7
			c0.5,0.4,0.7,1.2,0.7,2c0,1.4-0.5,2.3-1.8,3c-0.9,0.5-1.8,0.7-3,0.7h-4.8v-12H234.7z M234.4,236.9c0.6,0,1-0.1,1.3-0.3
			c0.5-0.2,0.8-0.7,0.8-1.2c0-0.4-0.3-0.9-0.6-1.1c-0.3-0.2-0.6-0.2-1.4-0.2h-2.2v2.7H234.4z M234.9,241.7c0.6,0,1-0.1,1.3-0.2
			c0.5-0.2,0.8-0.7,0.8-1.3c0-0.6-0.3-1-0.9-1.3c-0.4-0.2-0.7-0.2-1.6-0.2h-2.2v3H234.9z"/>
		<path d="M241.4,244v-8.5h2.1l0.1,1c0.7-0.8,1.3-1.1,2-1.1c0.3,0,0.5,0,0.8,0.1v2.1c-0.1,0-0.3,0-0.3,0c-0.8,0-1.4,0.2-1.8,0.6
			c-0.6,0.5-0.7,0.9-0.7,2.1v3.8H241.4z"/>
		<path d="M253.4,243.6c-0.7,0.3-1.4,0.4-2.3,0.4c-1,0-1.8-0.3-2.1-0.8c-0.3-0.4-0.3-0.7-0.3-1.7v-4.5h-1.3v-1.9h1.3v-2.8l2.3-0.6
			v3.4h2.1v1.9H251v3.5c0,1,0.2,1.3,1.1,1.3c0.3,0,0.5,0,0.9-0.1L253.4,243.6z"/>
		<path fill="#505050" d="M232.9,266h-2v-8.3H229v-1.6c1.7,0,2.2-0.4,2.2-1.9h1.7V266z"/>
		<path fill="#505050" d="M244.9,260.1c0,3.6-1.8,6-4.5,6c-2.9,0-4.6-2.2-4.6-6c0-2.1,0.5-3.7,1.3-4.6c0.8-0.9,1.9-1.4,3.2-1.4
			C243.2,254,244.9,256.3,244.9,260.1z M237.7,260c0,2.8,0.9,4.2,2.6,4.2s2.7-1.5,2.7-4.1c0-2.8-1-4.3-2.7-4.3
			C238.6,255.8,237.7,257.2,237.7,260z"/>
		<path fill="#505050" d="M248.7,265c0,0.6-0.5,1.1-1.1,1.1c-0.6,0-1.1-0.5-1.1-1.1c0-0.6,0.5-1.1,1.1-1.1
			C248.3,263.9,248.7,264.4,248.7,265z"/>
		<path fill="#505050" d="M258.4,255.9L254,266h-2.1l4.3-10h-6.1v-1.9h8.2V255.9z"/>
	</g>
	<g>
		<path d="M350.1,240.6c-0.4,0.9-0.6,1.4-1,1.9c-1,1.2-2.5,1.8-4.2,1.8c-3.4,0-5.8-2.7-5.8-6.5c0-2,0.8-3.8,2-4.9
			c1-0.8,2.4-1.3,3.9-1.3c2.5,0,4.4,1.4,5.1,3.9l-2.4,1c-0.2-0.7-0.4-1-0.7-1.4c-0.5-0.7-1.3-1.1-2.2-1.1c-0.9,0-1.8,0.4-2.4,1.1
			c-0.6,0.6-0.9,1.8-0.9,3.1c0,1.3,0.3,2.3,1,2.9c0.6,0.6,1.5,1,2.4,1c1,0,1.8-0.4,2.2-1.1c0.3-0.3,0.4-0.6,0.6-1.3L350.1,240.6z"/>
		<path d="M362.8,244v-4.6c0-1.3-0.5-1.9-1.5-1.9c-0.6,0-1.1,0.3-1.4,0.7c-0.3,0.4-0.3,0.8-0.3,1.6v4.2h-2.3v-4.4
			c0-0.7-0.1-1.2-0.3-1.5c-0.2-0.4-0.7-0.6-1.3-0.6c-1.1,0-1.7,0.8-1.7,2.1v4.5h-2.2v-8.5h2.1l0.1,0.7c0.8-0.6,1.4-0.8,2.2-0.8
			c1.1,0,1.8,0.4,2.7,1.3c1-0.9,1.8-1.3,2.8-1.3c1.1,0,2.1,0.5,2.7,1.3c0.5,0.6,0.6,1.1,0.6,2.4v5H362.8z"/>
		<path d="M372.7,244v-0.6c-0.6,0.5-1.4,0.8-2.2,0.8c-2.2,0-3.8-1.9-3.8-4.6c0-2.6,1.5-4.3,3.8-4.3c1,0,1.7,0.3,2.3,0.8V232h2.3v12
			H372.7z M368.7,239.8c0,1.5,0.9,2.5,2.1,2.5c0.6,0,1.2-0.3,1.5-0.6c0.3-0.4,0.4-0.9,0.4-1.8c0-0.9-0.1-1.5-0.3-1.9
			c-0.3-0.5-0.9-0.7-1.6-0.7C369.5,237.2,368.7,238.2,368.7,239.8z"/>
		<path fill="#505050" d="M346.5,255.9l-4.4,10.1H340l4.3-10h-6.1v-1.9h8.2V255.9z"/>
		<path fill="#505050" d="M349,265c0,0.6-0.5,1.1-1.1,1.1c-0.6,0-1.1-0.5-1.1-1.1c0-0.6,0.5-1.1,1.1-1.1
			C348.6,263.9,349,264.4,349,265z"/>
		<path fill="#505050" d="M360.6,260.1c0,3.6-1.8,6-4.5,6c-2.9,0-4.6-2.2-4.6-6c0-2.1,0.5-3.7,1.3-4.6c0.8-0.9,1.9-1.4,3.2-1.4
			C358.8,254,360.6,256.3,360.6,260.1z M353.4,260c0,2.8,0.9,4.2,2.6,4.2s2.7-1.5,2.7-4.1c0-2.8-1-4.3-2.7-4.3
			C354.2,255.8,353.4,257.2,353.4,260z"/>
	</g>
	<g>
		<path d="M449.9,244v-12h2.5v12H449.9z"/>
		<path d="M460.3,237.9c-0.7-0.6-1.2-0.8-1.9-0.8c-0.8,0-1.4,0.4-1.4,0.9c0,0.4,0.3,0.6,1.2,0.6c1.2,0.1,2,0.3,2.5,0.6
			c0.8,0.5,1.2,1.2,1.2,2.2c0,1.7-1.6,2.9-3.9,2.9c-1.4,0-2.7-0.5-3.6-1.4l1.5-1.5c1,0.8,1.5,1.1,2.3,1.1c0.8,0,1.4-0.4,1.4-0.9
			c0-0.2-0.1-0.5-0.3-0.6c-0.2-0.1-0.5-0.2-1-0.2c-1.5-0.2-2-0.3-2.5-0.7c-0.6-0.5-1-1.2-1-1.9c0-1.7,1.6-2.9,3.8-2.9
			c1.2,0,2.2,0.4,3.1,1.1L460.3,237.9z"/>
		<path d="M467.2,243.9c-0.5,0.1-0.9,0.2-1.5,0.2c-1,0-1.7-0.2-2.1-0.6c-0.3-0.4-0.4-0.9-0.4-2.2V232h2.3v8.9c0,1,0.2,1.2,0.9,1.2
			c0.2,0,0.2,0,0.5-0.1l0.1,0L467.2,243.9z"/>
		<path fill="#505050" d="M451.3,263c0.6,1,1.1,1.3,2,1.3c1,0,1.7-0.4,2.1-1.2c0.3-0.5,0.4-1.1,0.4-2.1c-0.9,0.8-1.6,1.1-2.8,1.1
			c-2.2,0-3.8-1.6-3.8-3.9c0-2.5,1.7-4.2,4.1-4.2c1.6,0,3,0.8,3.7,2.1c0.5,0.9,0.8,2.3,0.8,4.1c0,2.1-0.4,3.5-1.2,4.5
			c-0.8,1-2.1,1.5-3.4,1.5c-1.8,0-3.1-0.9-3.7-2.6L451.3,263z M451.3,258.1c0,1.3,0.9,2.3,2.1,2.3c1.3,0,2.3-0.9,2.3-2.1
			c0-1.5-0.9-2.5-2.2-2.5C452.2,255.8,451.3,256.7,451.3,258.1z"/>
		<path fill="#505050" d="M461.7,265c0,0.6-0.5,1.1-1.1,1.1c-0.6,0-1.1-0.5-1.1-1.1c0-0.6,0.5-1.1,1.1-1.1
			C461.2,263.9,461.7,264.4,461.7,265z"/>
		<path fill="#505050" d="M471.9,266H464v-1.8c1.7-1.2,3.1-2.2,4.1-3.2c1.4-1.2,1.8-2,1.8-3.2c0-1.3-0.8-2.1-2.1-2.1
			c-0.9,0-1.5,0.4-1.8,1.1c-0.1,0.3-0.2,0.7-0.2,1.5h-1.9c0-0.2,0-0.3,0-0.4c0-1.4,0.6-2.6,1.5-3.3c0.7-0.4,1.6-0.7,2.7-0.7
			c2.4,0,4,1.5,4,3.7c0,1.4-0.7,2.9-1.8,4c-0.7,0.6-1.4,1.3-3,2.5h4.7V266z"/>
	</g>
	<g>
		<path d="M567.2,244v-5h-5v5h-2.3v-12h2.3v4.7h5V232h2.3v12H567.2z"/>
		<path d="M579.6,241.6c-0.7,1.7-2,2.6-3.7,2.6c-1.2,0-2.4-0.5-3.2-1.4c-0.7-0.7-1-1.8-1-3.1c0-2.7,1.7-4.4,4.2-4.4
			c1.7,0,3,0.8,3.7,2.5l-2,0.7c-0.4-1-0.9-1.4-1.7-1.4c-1.2,0-2.1,1.1-2.1,2.7c0,1.5,0.8,2.4,2,2.4c0.9,0,1.5-0.4,1.8-1.4
			L579.6,241.6z"/>
		<path d="M586.1,244l-2-3.4l-1,1v2.4h-2.2v-12h2.2v6.6l3.1-3.2h3l-3.4,3.7l3.2,5H586.1z"/>
		<path fill="#505050" d="M562.9,266h-2v-8.3H559v-1.6c1.7,0,2.2-0.4,2.2-1.9h1.7V266z"/>
		<path fill="#505050" d="M574.9,260.1c0,3.6-1.8,6-4.5,6c-2.9,0-4.6-2.2-4.6-6c0-2.1,0.5-3.7,1.3-4.6c0.8-0.9,1.9-1.4,3.2-1.4
			C573.2,254,574.9,256.3,574.9,260.1z M567.7,260c0,2.8,0.9,4.2,2.6,4.2s2.7-1.5,2.7-4.1c0-2.8-1-4.3-2.7-4.3
			C568.6,255.8,567.7,257.2,567.7,260z"/>
		<path fill="#505050" d="M578.7,265c0,0.6-0.5,1.1-1.1,1.1c-0.6,0-1.1-0.5-1.1-1.1c0-0.6,0.5-1.1,1.1-1.1
			C578.3,263.9,578.7,264.4,578.7,265z"/>
		<path fill="#505050" d="M583.2,263c0.6,1,1.1,1.3,2,1.3c1,0,1.7-0.4,2.1-1.2c0.3-0.5,0.4-1.1,0.4-2.1c-0.9,0.8-1.6,1.1-2.8,1.1
			c-2.2,0-3.8-1.6-3.8-3.9c0-2.5,1.7-4.2,4.1-4.2c1.6,0,3,0.8,3.7,2.1c0.5,0.9,0.8,2.3,0.8,4.1c0,2.1-0.4,3.5-1.2,4.5
			c-0.8,1-2.1,1.5-3.4,1.5c-1.8,0-3.1-0.9-3.7-2.6L583.2,263z M583.2,258.1c0,1.3,0.9,2.3,2.1,2.3c1.3,0,2.3-0.9,2.3-2.1
			c0-1.5-0.9-2.5-2.2-2.5C584.1,255.8,583.2,256.7,583.2,258.1z"/>
	</g>
	<g>
		<path d="M236.8,354l-3.1-5.1l-1.2,1.5v3.5h-2.5v-12h2.5v4.7l3.9-4.7h3l-4.1,5l4.5,7H236.8z"/>
		<path d="M246.2,354v-4.9c0-1.1-0.5-1.7-1.4-1.7c-0.6,0-1.1,0.3-1.4,0.7c-0.3,0.4-0.4,0.8-0.4,1.7v4.3h-2.3v-8.5h2.1l0.1,0.6
			c0.8-0.7,1.4-0.9,2.3-0.9c1.1,0,2,0.5,2.6,1.3c0.4,0.6,0.6,1.2,0.6,2.5v5H246.2z"/>
		<path d="M255.6,347.9c-0.7-0.6-1.2-0.8-1.9-0.8c-0.8,0-1.4,0.4-1.4,0.9c0,0.4,0.3,0.6,1.2,0.6c1.2,0.1,2,0.3,2.5,0.6
			c0.8,0.5,1.2,1.2,1.2,2.2c0,1.7-1.6,2.9-3.9,2.9c-1.4,0-2.7-0.5-3.6-1.4l1.5-1.5c1,0.8,1.5,1.1,2.3,1.1c0.8,0,1.4-0.4,1.4-0.9
			c0-0.2-0.1-0.5-0.3-0.6c-0.2-0.1-0.5-0.2-1-0.2c-1.5-0.2-2-0.3-2.5-0.7c-0.6-0.5-1-1.2-1-1.9c0-1.7,1.6-2.9,3.8-2.9
			c1.2,0,2.2,0.4,3.1,1.1L255.6,347.9z"/>
		<path fill="#505050" d="M236.5,365.9l-4.4,10.1H230l4.3-10h-6.1v-1.9h8.2V365.9z"/>
		<path fill="#505050" d="M239,375c0,0.6-0.5,1.1-1.1,1.1c-0.6,0-1.1-0.5-1.1-1.1c0-0.6,0.5-1.1,1.1-1.1
			C238.6,373.9,239,374.4,239,375z"/>
		<path fill="#505050" d="M249.2,376h-2v-2.3h-6.3v-2.1l5.8-7.5h2.6v7.8h1.7v1.8h-1.7V376z M247.1,366.3l-4.2,5.5h4.2V366.3z"/>
	</g>
	<g>
		<path fill="#D2D2D2" d="M351.1,354h-3l-1.8-8.5l-1.7,8.5h-2.9l-2.9-12h2.6l1.9,8.4l1.7-8.4h2.8l1.8,8.4l1.7-8.4h2.6L351.1,354z"/>
		<path fill="#D2D2D2" d="M360.3,347.9c-0.7-0.6-1.2-0.8-1.9-0.8c-0.8,0-1.4,0.4-1.4,0.9c0,0.4,0.3,0.6,1.2,0.6
			c1.2,0.1,2,0.3,2.5,0.6c0.8,0.5,1.2,1.2,1.2,2.2c0,1.7-1.6,2.9-3.9,2.9c-1.4,0-2.7-0.5-3.6-1.4l1.5-1.5c1,0.8,1.5,1.1,2.3,1.1
			c0.8,0,1.4-0.4,1.4-0.9c0-0.2-0.1-0.5-0.3-0.6c-0.2-0.1-0.5-0.2-1-0.2c-1.5-0.2-2-0.3-2.5-0.7c-0.6-0.5-1-1.2-1-1.9
			c0-1.7,1.6-2.9,3.8-2.9c1.2,0,2.2,0.4,3.1,1.1L360.3,347.9z"/>
		<path fill="#D2D2D2" d="M368.7,353.6c-0.7,0.3-1.4,0.4-2.3,0.4c-1,0-1.8-0.3-2.1-0.8c-0.3-0.4-0.3-0.7-0.3-1.7v-4.5h-1.3v-1.9h1.3
			v-2.8l2.3-0.6v3.4h2.1v1.9h-2.1v3.5c0,1,0.2,1.3,1.1,1.3c0.3,0,0.5,0,0.9-0.1L368.7,353.6z"/>
		<path fill="#B4B4B4" d="M345.9,367.2c-0.5-1-1.1-1.4-2.1-1.4c-0.9,0-1.6,0.4-2.1,1.2c-0.3,0.5-0.4,1-0.5,2.1c0.9-0.7,1.6-1,2.6-1
			c2.2,0,3.8,1.6,3.8,3.9c0,1.3-0.5,2.5-1.4,3.2c-0.6,0.6-1.7,0.9-2.7,0.9c-1.5,0-2.8-0.7-3.5-1.9c-0.5-0.9-0.8-2.1-0.8-3.8
			c0-4.1,1.6-6.4,4.6-6.4c1.8,0,3.1,0.9,3.8,2.7L345.9,367.2z M341.3,371.9c0,1.4,0.9,2.5,2.2,2.5c1.3,0,2.2-1,2.2-2.3
			c0-1.4-0.8-2.4-2.1-2.4C342.3,369.7,341.3,370.7,341.3,371.9z"/>
		<path fill="#B4B4B4" d="M351.5,375c0,0.6-0.5,1.1-1.1,1.1c-0.6,0-1.1-0.5-1.1-1.1c0-0.6,0.5-1.1,1.1-1.1
			C351,373.9,351.5,374.4,351.5,375z"/>
		<path fill="#B4B4B4" d="M357.1,376h-2v-8.3h-1.9v-1.6c1.7,0,2.2-0.4,2.2-1.9h1.7V376z"/>
	</g>
	<g>
		<path fill="#FFFFFF" d="M460.1,350.6c-0.4,0.9-0.6,1.4-1,1.9c-1,1.2-2.5,1.8-4.2,1.8c-3.4,0-5.8-2.7-5.8-6.5c0-2,0.8-3.8,2-4.9
			c1-0.8,2.4-1.3,3.9-1.3c2.5,0,4.4,1.4,5.1,3.9l-2.4,1c-0.2-0.7-0.4-1-0.7-1.4c-0.5-0.7-1.3-1.1-2.2-1.1c-0.9,0-1.8,0.4-2.4,1.1
			c-0.6,0.6-0.9,1.8-0.9,3.1c0,1.3,0.3,2.3,1,2.9c0.6,0.6,1.5,1,2.4,1c1,0,1.8-0.4,2.2-1.1c0.3-0.3,0.4-0.6,0.6-1.3L460.1,350.6z"/>
		<path fill="#FFFFFF" d="M467.2,353.6c-0.7,0.3-1.4,0.4-2.3,0.4c-1,0-1.8-0.3-2.1-0.8c-0.3-0.4-0.3-0.7-0.3-1.7v-4.5h-1.3v-1.9h1.3
			v-2.8l2.3-0.6v3.4h2.1v1.9h-2.1v3.5c0,1,0.2,1.3,1.1,1.3c0.3,0,0.5,0,0.9-0.1L467.2,353.6z"/>
		<path fill="#FFFFFF" d="M472.7,354.5c-0.4,1.1-0.6,1.5-0.9,1.7c-0.4,0.3-1.1,0.6-1.9,0.6c-0.5,0-1.1-0.1-1.8-0.3l0.2-1.8
			c0.5,0.1,0.8,0.2,1.2,0.2c0.6,0,1-0.3,1-0.8c0-0.2,0-0.2-0.2-0.8l-2.8-7.7h2.4l1.7,5.4l1.7-5.4h2.3L472.7,354.5z"/>
		<path fill="#A0A0A0" d="M458.4,370.1c0,3.6-1.8,6-4.5,6c-2.9,0-4.6-2.2-4.6-6c0-2.1,0.5-3.7,1.3-4.6c0.8-0.9,1.9-1.4,3.2-1.4
			C456.6,364,458.4,366.3,458.4,370.1z M451.1,370c0,2.8,0.9,4.2,2.6,4.2s2.7-1.5,2.7-4.1c0-2.8-1-4.3-2.7-4.3
			C452,365.8,451.1,367.2,451.1,370z"/>
		<path fill="#A0A0A0" d="M462.1,375c0,0.6-0.5,1.1-1.1,1.1c-0.6,0-1.1-0.5-1.1-1.1c0-0.6,0.5-1.1,1.1-1.1
			C461.7,373.9,462.1,374.4,462.1,375z"/>
		<path fill="#A0A0A0" d="M473.7,370.1c0,3.6-1.8,6-4.5,6c-2.9,0-4.6-2.2-4.6-6c0-2.1,0.5-3.7,1.3-4.6c0.8-0.9,1.9-1.4,3.2-1.4
			C471.9,364,473.7,366.3,473.7,370.1z M466.5,370c0,2.8,0.9,4.2,2.6,4.2s2.7-1.5,2.7-4.1c0-2.8-1-4.3-2.7-4.3
			C467.4,365.8,466.5,367.2,466.5,370z"/>
	</g>
	<g>
		<path d="M561.7,354v-9.6h-3.4V342h9.4v2.4h-3.5v9.6H561.7z"/>
		<path d="M574.7,346.6c0.7,0.8,1,1.9,1,3.2c0,1.3-0.6,2.7-1.4,3.5c-0.7,0.7-1.6,1-2.8,1c-2.5,0-4.1-1.8-4.1-4.5
			c0-2.8,1.6-4.5,4.2-4.5C573,345.2,574,345.7,574.7,346.6z M569.6,349.8c0,1.5,0.8,2.5,2,2.5c1.2,0,1.9-1,1.9-2.6
			c0-1.5-0.8-2.5-2-2.5C570.3,347.2,569.6,348.3,569.6,349.8z"/>
		<path d="M586.8,354h-2.7l-1.4-5.1l-1.2,5.1h-2.8l-2.3-8.5h2.3l1.4,5.8l1.4-5.8h2.4l1.5,5.8l1.4-5.8h2.4L586.8,354z"/>
		<path fill="#505050" d="M562.9,376h-2v-8.3H559v-1.6c1.7,0,2.2-0.4,2.2-1.9h1.7V376z"/>
		<path fill="#505050" d="M565.8,367.6c0.3-2.4,1.6-3.6,4.1-3.6c2.6,0,4.1,1.3,4.1,3.5c0,1.2-0.5,1.9-1.4,2.4c1,0.5,1.4,1.3,1.4,2.5
			c0,2.2-1.6,3.6-4.1,3.6c-2.5,0-3.9-1.1-4.4-3.5l2-0.3c0.2,0.9,0.3,1.2,0.7,1.5c0.4,0.4,1,0.6,1.7,0.6c1.3,0,2.1-0.7,2.1-1.9
			c0-0.6-0.3-1.2-0.7-1.4c-0.4-0.2-0.8-0.3-1.6-0.3H569v-1.6h0.6c1.7,0,2.3-0.4,2.3-1.5c0-1.1-0.8-1.8-2.1-1.8
			c-0.9,0-1.5,0.3-1.9,0.8c-0.2,0.3-0.3,0.6-0.4,1.3L565.8,367.6z"/>
		<path fill="#505050" d="M578.3,375c0,0.6-0.5,1.1-1.1,1.1c-0.6,0-1.1-0.5-1.1-1.1c0-0.6,0.5-1.1,1.1-1.1
			C577.8,373.9,578.3,374.4,578.3,375z"/>
		<path fill="#505050" d="M582.9,368.4c0.9-0.5,1.5-0.7,2.3-0.7c2.3,0,3.9,1.8,3.9,4.2c0,2.5-1.7,4.2-4.3,4.2
			c-2.1,0-3.7-1.2-4.3-3.1l1.9-0.5c0.5,1.3,1.2,1.8,2.3,1.8c1.4,0,2.4-1,2.4-2.4c0-1.5-1-2.5-2.3-2.5c-1,0-1.6,0.3-2.1,1.2l-2-0.4
			l1-6.1h6.8v1.9h-5.2L582.9,368.4z"/>
	</g>
	<g>
		<path d="M241.1,464h-3l-1.8-8.5l-1.7,8.5h-2.9l-2.9-12h2.6l1.9,8.4l1.7-8.4h2.8l1.8,8.4l1.7-8.4h2.6L241.1,464z"/>
		<path d="M250.7,464v-4.9c0-1.1-0.5-1.7-1.4-1.7c-0.6,0-1.1,0.3-1.4,0.7c-0.3,0.4-0.4,0.8-0.4,1.7v4.3h-2.3v-8.5h2.1l0.1,0.6
			c0.8-0.7,1.4-0.9,2.3-0.9c1.1,0,2,0.5,2.6,1.3c0.4,0.6,0.6,1.2,0.6,2.5v5H250.7z"/>
		<path d="M260.2,457.9c-0.7-0.6-1.2-0.8-1.9-0.8c-0.8,0-1.4,0.4-1.4,0.9c0,0.4,0.3,0.6,1.2,0.6c1.2,0.1,2,0.3,2.5,0.6
			c0.8,0.5,1.2,1.2,1.2,2.2c0,1.7-1.6,2.9-3.9,2.9c-1.4,0-2.7-0.5-3.6-1.4l1.5-1.5c1,0.8,1.5,1.1,2.3,1.1c0.8,0,1.4-0.4,1.4-0.9
			c0-0.2-0.1-0.5-0.3-0.6c-0.2-0.1-0.5-0.2-1-0.2c-1.5-0.2-2-0.3-2.5-0.7c-0.6-0.5-1-1.2-1-1.9c0-1.7,1.6-2.9,3.8-2.9
			c1.2,0,2.2,0.4,3.1,1.1L260.2,457.9z"/>
		<path fill="#505050" d="M231.3,483c0.6,1,1.1,1.3,2,1.3c1,0,1.7-0.4,2.1-1.2c0.3-0.5,0.4-1.1,0.4-2.1c-0.9,0.8-1.6,1.1-2.8,1.1
			c-2.2,0-3.8-1.6-3.8-3.9c0-2.5,1.7-4.2,4.1-4.2c1.6,0,3,0.8,3.7,2.1c0.5,0.9,0.8,2.3,0.8,4.1c0,2.1-0.4,3.5-1.2,4.5
			c-0.8,1-2.1,1.5-3.4,1.5c-1.8,0-3.1-0.9-3.7-2.6L231.3,483z M231.3,478.1c0,1.3,0.9,2.3,2.1,2.3c1.3,0,2.3-0.9,2.3-2.1
			c0-1.5-0.9-2.5-2.2-2.5C232.2,475.8,231.3,476.7,231.3,478.1z"/>
		<path fill="#505050" d="M241.7,485c0,0.6-0.5,1.1-1.1,1.1c-0.6,0-1.1-0.5-1.1-1.1c0-0.6,0.5-1.1,1.1-1.1
			C241.2,483.9,241.7,484.4,241.7,485z"/>
		<path fill="#505050" d="M247.3,486h-2v-8.3h-1.9v-1.6c1.7,0,2.2-0.4,2.2-1.9h1.7V486z"/>
	</g>
	<g>
		<path d="M119.9,244v-12h7.9v2.3h-5.5v2.6h4.9v2.2h-4.9v2.7h6v2.2H119.9z"/>
		<path d="M134.3,243.9c-0.5,0.1-0.9,0.2-1.5,0.2c-1,0-1.7-0.2-2.1-0.6c-0.3-0.4-0.4-0.9-0.4-2.2V232h2.3v8.9c0,1,0.2,1.2,0.9,1.2
			c0.2,0,0.2,0,0.5-0.1l0.1,0L134.3,243.9z"/>
		<path d="M142.9,242.4c0,1.3,0,1.6-0.2,2.1c-0.3,0.8-0.7,1.4-1.5,1.7c-0.7,0.3-1.6,0.5-2.4,0.5c-1.3,0-2.8-0.4-3.8-1l0.9-1.7
			c1.1,0.6,2,0.8,3,0.8c1.2,0,1.8-0.5,1.8-1.6c0-0.1,0-0.2,0-0.4c-0.9,0.5-1.4,0.6-2.1,0.6c-2.1,0-3.7-1.7-3.7-4
			c0-1.5,0.6-2.8,1.8-3.5c0.6-0.4,1.4-0.6,2.1-0.6c0.7,0,1.3,0.2,1.9,0.6l0.1-0.4h2.1V242.4z M137.1,239.5c0,1.3,0.7,2.1,1.9,2.1
			c1.2,0,1.8-0.7,1.8-2.2c0-0.9-0.2-1.4-0.6-1.7c-0.3-0.2-0.7-0.4-1.1-0.4C137.9,237.2,137.1,238.2,137.1,239.5z"/>
		<path fill="#505050" d="M122.9,266h-2v-8.3H119v-1.6c1.7,0,2.2-0.4,2.2-1.9h1.7V266z"/>
		<path fill="#505050" d="M129.3,266h-2v-8.3h-1.9v-1.6c1.7,0,2.2-0.4,2.2-1.9h1.7V266z"/>
		<path fill="#505050" d="M134.2,265c0,0.6-0.5,1.1-1.1,1.1c-0.6,0-1.1-0.5-1.1-1.1c0-0.6,0.5-1.1,1.1-1.1
			C133.7,263.9,134.2,264.4,134.2,265z"/>
		<path fill="#505050" d="M143.3,257.2c-0.5-1-1.1-1.4-2.1-1.4c-0.9,0-1.6,0.4-2.1,1.2c-0.3,0.5-0.4,1-0.5,2.1c0.9-0.7,1.6-1,2.6-1
			c2.2,0,3.8,1.6,3.8,3.9c0,1.3-0.5,2.5-1.4,3.2c-0.6,0.6-1.7,0.9-2.7,0.9c-1.5,0-2.8-0.7-3.5-1.9c-0.5-0.9-0.8-2.1-0.8-3.8
			c0-4.1,1.6-6.4,4.6-6.4c1.8,0,3.1,0.9,3.8,2.7L143.3,257.2z M138.7,261.9c0,1.4,0.9,2.5,2.2,2.5c1.3,0,2.2-1,2.2-2.3
			c0-1.4-0.8-2.4-2.1-2.4C139.7,259.7,138.7,260.7,138.7,261.9z"/>
	</g>
	<g>
		<path fill="#D2D2D2" d="M127.2,354v-5h-5v5h-2.3v-12h2.3v4.7h5V342h2.3v12H127.2z"/>
		<path fill="#D2D2D2" d="M143.1,354v-4.6c0-1.3-0.5-1.9-1.5-1.9c-0.6,0-1.1,0.3-1.4,0.7c-0.3,0.4-0.3,0.8-0.3,1.6v4.2h-2.3v-4.4
			c0-0.7-0.1-1.2-0.3-1.5c-0.2-0.4-0.7-0.6-1.3-0.6c-1.1,0-1.7,0.8-1.7,2.1v4.5h-2.2v-8.5h2.1l0.1,0.7c0.8-0.6,1.4-0.8,2.2-0.8
			c1.1,0,1.8,0.4,2.7,1.3c1-0.9,1.8-1.3,2.8-1.3c1.1,0,2.1,0.5,2.7,1.3c0.5,0.6,0.6,1.1,0.6,2.4v5H143.1z"/>
		<path fill="#D2D2D2" d="M152.6,347.9c-0.7-0.6-1.2-0.8-1.9-0.8c-0.8,0-1.4,0.4-1.4,0.9c0,0.4,0.3,0.6,1.2,0.6
			c1.2,0.1,2,0.3,2.5,0.6c0.8,0.5,1.2,1.2,1.2,2.2c0,1.7-1.6,2.9-3.9,2.9c-1.4,0-2.7-0.5-3.6-1.4l1.5-1.5c1,0.8,1.5,1.1,2.3,1.1
			c0.8,0,1.4-0.4,1.4-0.9c0-0.2-0.1-0.5-0.3-0.6c-0.2-0.1-0.5-0.2-1-0.2c-1.5-0.2-2-0.3-2.5-0.7c-0.6-0.5-1-1.2-1-1.9
			c0-1.7,1.6-2.9,3.8-2.9c1.2,0,2.2,0.4,3.1,1.1L152.6,347.9z"/>
		<path fill="#B4B4B4" d="M125.9,367.2c-0.5-1-1.1-1.4-2.1-1.4c-0.9,0-1.6,0.4-2.1,1.2c-0.3,0.5-0.4,1-0.5,2.1c0.9-0.7,1.6-1,2.6-1
			c2.2,0,3.8,1.6,3.8,3.9c0,1.3-0.5,2.5-1.4,3.2c-0.6,0.6-1.7,0.9-2.7,0.9c-1.5,0-2.8-0.7-3.5-1.9c-0.5-0.9-0.8-2.1-0.8-3.8
			c0-4.1,1.6-6.4,4.6-6.4c1.8,0,3.1,0.9,3.8,2.7L125.9,367.2z M121.3,371.9c0,1.4,0.9,2.5,2.2,2.5c1.3,0,2.2-1,2.2-2.3
			c0-1.4-0.8-2.4-2.1-2.4C122.3,369.7,121.3,370.7,121.3,371.9z"/>
		<path fill="#B4B4B4" d="M131.5,375c0,0.6-0.5,1.1-1.1,1.1c-0.6,0-1.1-0.5-1.1-1.1c0-0.6,0.5-1.1,1.1-1.1
			C131,373.9,131.5,374.4,131.5,375z"/>
		<path fill="#B4B4B4" d="M143.1,370.1c0,3.6-1.8,6-4.5,6c-2.9,0-4.6-2.2-4.6-6c0-2.1,0.5-3.7,1.3-4.6c0.8-0.9,1.9-1.4,3.2-1.4
			C141.3,364,143.1,366.3,143.1,370.1z M135.8,370c0,2.8,0.9,4.2,2.6,4.2s2.7-1.5,2.7-4.1c0-2.8-1-4.3-2.7-4.3
			C136.7,365.8,135.8,367.2,135.8,370z"/>
	</g>
	<g>
		<path fill="#D2D2D2" d="M126.8,464l-2.6-4.6h-1.6v4.6h-2.6v-12h4.5c1.5,0,2.4,0.2,3.3,0.7c1,0.6,1.6,1.7,1.6,3c0,1-0.4,2-1.1,2.6
			c-0.4,0.3-0.7,0.5-1.4,0.8l2.8,4.9H126.8z M124.7,457.1c1.3,0,2-0.5,2-1.4c0-0.6-0.3-1.1-0.9-1.3c-0.3-0.1-0.6-0.2-1.2-0.2h-2.1
			v2.9H124.7z"/>
		<path fill="#D2D2D2" d="M138.8,461.6c-0.7,1.7-2,2.6-3.7,2.6c-1.2,0-2.4-0.5-3.2-1.4c-0.7-0.7-1-1.8-1-3.1c0-2.7,1.7-4.4,4.2-4.4
			c1.7,0,3,0.8,3.7,2.5l-2,0.7c-0.4-1-0.9-1.4-1.7-1.4c-1.2,0-2.1,1.1-2.1,2.7c0,1.5,0.8,2.4,2,2.4c0.9,0,1.5-0.4,1.8-1.4
			L138.8,461.6z"/>
		<path fill="#D2D2D2" d="M145.5,464v-4.8c0-1.2-0.5-1.8-1.5-1.8c-0.5,0-1,0.3-1.4,0.7c-0.3,0.4-0.4,0.8-0.4,1.5v4.4H140v-12h2.2
			v4.1c0.9-0.6,1.5-0.8,2.2-0.8c1.1,0,2,0.4,2.6,1.2c0.5,0.6,0.6,1.1,0.6,2.4v5H145.5z"/>
		<path fill="#B4B4B4" d="M119.3,477.6c0.3-2.4,1.6-3.6,4.1-3.6c2.6,0,4.1,1.3,4.1,3.5c0,1.2-0.5,1.9-1.4,2.4c1,0.5,1.4,1.3,1.4,2.5
			c0,2.2-1.6,3.6-4.1,3.6c-2.5,0-3.9-1.1-4.4-3.5l2-0.3c0.2,0.9,0.3,1.2,0.7,1.5c0.4,0.4,1,0.6,1.7,0.6c1.3,0,2.1-0.7,2.1-1.9
			c0-0.6-0.3-1.2-0.7-1.4c-0.4-0.2-0.8-0.3-1.6-0.3h-0.6v-1.6h0.6c1.7,0,2.3-0.4,2.3-1.5c0-1.1-0.8-1.8-2.1-1.8
			c-0.9,0-1.5,0.3-1.9,0.8c-0.2,0.3-0.3,0.6-0.4,1.3L119.3,477.6z"/>
		<path fill="#B4B4B4" d="M131.8,485c0,0.6-0.5,1.1-1.1,1.1c-0.6,0-1.1-0.5-1.1-1.1c0-0.6,0.5-1.1,1.1-1.1
			C131.3,483.9,131.8,484.4,131.8,485z"/>
		<path fill="#B4B4B4" d="M141.4,475.9L137,486H135l4.3-10h-6.1v-1.9h8.2V475.9z"/>
	</g>
	<g>
		<path d="M17.2,244v-5h-5v5H9.9v-12h2.3v4.7h5V232h2.3v12H17.2z"/>
		<path d="M27.7,244v-0.6c-0.6,0.5-1.4,0.8-2.2,0.8c-2.2,0-3.8-1.9-3.8-4.6c0-2.6,1.5-4.3,3.8-4.3c1,0,1.7,0.3,2.3,0.8V232H30v12
			H27.7z M23.8,239.8c0,1.5,0.9,2.5,2.1,2.5c0.6,0,1.2-0.3,1.5-0.6c0.3-0.4,0.4-0.9,0.4-1.8c0-0.9-0.1-1.5-0.3-1.9
			c-0.3-0.5-0.9-0.7-1.6-0.7C24.6,237.2,23.8,238.2,23.8,239.8z"/>
		<path d="M37.5,244v-4.9c0-1.1-0.5-1.7-1.4-1.7c-0.6,0-1.1,0.3-1.4,0.7c-0.3,0.4-0.4,0.8-0.4,1.7v4.3H32v-8.5h2.1l0.1,0.6
			c0.8-0.7,1.4-0.9,2.3-0.9c1.1,0,2,0.5,2.6,1.3c0.4,0.6,0.6,1.2,0.6,2.5v5H37.5z"/>
		<path fill="#505050" d="M17.2,260.6c0.4,0.5,0.6,1.2,0.6,2c0,2.1-1.7,3.5-4.2,3.5c-2.5,0-4.2-1.5-4.2-3.6c0-1.2,0.5-2,1.6-2.6
			c-1-0.6-1.5-1.4-1.5-2.5c0-2,1.6-3.4,4-3.4c2.4,0,4,1.4,4,3.3c0,1.2-0.5,2-1.4,2.5C16.7,260.1,16.9,260.3,17.2,260.6z M11.3,262.5
			c0,1.1,0.9,1.8,2.3,1.8c1.4,0,2.2-0.7,2.2-1.7c0-1.2-0.8-1.9-2.2-1.9C12.2,260.7,11.3,261.4,11.3,262.5z M11.5,257.5
			c0,1,0.7,1.6,2,1.6c1.3,0,2.1-0.6,2.1-1.6c0-1-0.8-1.7-2.1-1.7C12.3,255.8,11.5,256.5,11.5,257.5z"/>
		<path fill="#505050" d="M21.8,265c0,0.6-0.5,1.1-1.1,1.1c-0.6,0-1.1-0.5-1.1-1.1c0-0.6,0.5-1.1,1.1-1.1
			C21.3,263.9,21.8,264.4,21.8,265z"/>
		<path fill="#505050" d="M31.9,266h-2v-2.3h-6.3v-2.1l5.8-7.5h2.6v7.8h1.7v1.8h-1.7V266z M29.9,256.3l-4.2,5.5h4.2V256.3z"/>
	</g>
	<g>
		<path d="M17.2,354v-5h-5v5H9.9v-12h2.3v4.7h5V342h2.3v12H17.2z"/>
		<path d="M27.6,354v-4.9c0-1.1-0.5-1.7-1.4-1.7c-0.6,0-1.1,0.3-1.4,0.7c-0.3,0.4-0.4,0.8-0.4,1.7v4.3h-2.3v-8.5h2.1l0.1,0.6
			c0.8-0.7,1.4-0.9,2.3-0.9c1.1,0,2,0.5,2.6,1.3c0.4,0.6,0.6,1.2,0.6,2.5v5H27.6z"/>
		<path d="M37.1,347.9c-0.7-0.6-1.2-0.8-1.9-0.8c-0.8,0-1.4,0.4-1.4,0.9c0,0.4,0.3,0.6,1.2,0.6c1.2,0.1,2,0.3,2.5,0.6
			c0.8,0.5,1.2,1.2,1.2,2.2c0,1.7-1.6,2.9-3.9,2.9c-1.4,0-2.7-0.5-3.6-1.4l1.5-1.5c1,0.8,1.5,1.1,2.3,1.1c0.8,0,1.4-0.4,1.4-0.9
			c0-0.2-0.1-0.5-0.3-0.6c-0.2-0.1-0.5-0.2-1-0.2c-1.5-0.2-2-0.3-2.5-0.7c-0.6-0.5-1-1.2-1-1.9c0-1.7,1.6-2.9,3.8-2.9
			c1.2,0,2.2,0.4,3.1,1.1L37.1,347.9z"/>
		<path fill="#505050" d="M16.5,365.9L12.1,376H10l4.3-10H8.2v-1.9h8.2V365.9z"/>
		<path fill="#505050" d="M19,375c0,0.6-0.5,1.1-1.1,1.1c-0.6,0-1.1-0.5-1.1-1.1c0-0.6,0.5-1.1,1.1-1.1C18.6,373.9,19,374.4,19,375z
			"/>
		<path fill="#505050" d="M28.7,365.9L24.3,376h-2.1l4.3-10h-6.1v-1.9h8.2V365.9z"/>
	</g>
	<g>
		<path d="M339.9,464v-12h2.5v9.7h5.3v2.3H339.9z"/>
		<path d="M356,464.2c-0.2,0-0.3,0-0.4,0c-0.6,0-1.2-0.3-1.7-0.9c-0.5,0.6-1.1,0.9-2.1,0.9c-1.9,0-3.3-1.2-3.3-2.8
			c0-0.8,0.4-1.6,1.1-2c0.8-0.5,2-0.7,4-0.8c0-0.6,0-0.7-0.1-0.9c-0.2-0.3-0.6-0.5-1.2-0.5c-0.8,0-1.8,0.3-2.7,0.9l-1.1-1.6
			c1.3-0.8,2.4-1.2,3.9-1.2c1.1,0,2,0.3,2.6,0.7c0.7,0.6,0.9,1.1,0.9,2.5v2.8c0,1,0.1,1.2,0.9,1.4L356,464.2z M353.6,460.2
			c-0.6,0-1.1,0.1-1.6,0.2c-0.9,0.2-1.2,0.5-1.2,1c0,0.6,0.5,1,1.3,1c0.9,0,1.5-0.5,1.5-1.2V460.2z"/>
		<path d="M369,464v-4.6c0-1.3-0.5-1.9-1.5-1.9c-0.6,0-1.1,0.3-1.4,0.7c-0.3,0.4-0.3,0.8-0.3,1.6v4.2h-2.3v-4.4
			c0-0.7-0.1-1.2-0.3-1.5c-0.2-0.4-0.7-0.6-1.3-0.6c-1.1,0-1.7,0.8-1.7,2.1v4.5H358v-8.5h2.1l0.1,0.7c0.8-0.6,1.4-0.8,2.2-0.8
			c1.1,0,1.8,0.4,2.7,1.3c1-0.9,1.8-1.3,2.8-1.3c1.1,0,2.1,0.5,2.7,1.3c0.5,0.6,0.6,1.1,0.6,2.4v5H369z"/>
		<path fill="#505050" d="M346.5,475.9l-4.4,10.1H340l4.3-10h-6.1v-1.9h8.2V475.9z"/>
		<path fill="#505050" d="M349,485c0,0.6-0.5,1.1-1.1,1.1c-0.6,0-1.1-0.5-1.1-1.1c0-0.6,0.5-1.1,1.1-1.1
			C348.6,483.9,349,484.4,349,485z"/>
		<path fill="#505050" d="M358.1,477.2c-0.5-1-1.1-1.4-2.1-1.4c-0.9,0-1.6,0.4-2.1,1.2c-0.3,0.5-0.4,1-0.5,2.1c0.9-0.7,1.6-1,2.6-1
			c2.2,0,3.8,1.6,3.8,3.9c0,1.3-0.5,2.5-1.4,3.2c-0.6,0.6-1.7,0.9-2.7,0.9c-1.5,0-2.8-0.7-3.5-1.9c-0.5-0.9-0.8-2.1-0.8-3.8
			c0-4.1,1.6-6.4,4.6-6.4c1.8,0,3.1,0.9,3.8,2.7L358.1,477.2z M353.5,481.9c0,1.4,0.9,2.5,2.2,2.5c1.3,0,2.2-1,2.2-2.3
			c0-1.4-0.8-2.4-2.1-2.4C354.5,479.7,353.5,480.7,353.5,481.9z"/>
	</g>
	<g>
		<path d="M457.4,455.2c-0.9-0.8-1.9-1.1-3-1.1s-1.9,0.6-1.9,1.4c0,0.4,0.2,0.7,0.5,0.8c0.3,0.2,0.5,0.2,1.5,0.4
			c1.5,0.2,2.5,0.5,3.1,0.9c0.9,0.6,1.4,1.6,1.4,2.7c0,2.4-2.1,4-5.2,4c-2.1,0-3.4-0.5-5.3-2.2l2-1.6c0.9,1,2.1,1.5,3.5,1.5
			c1.3,0,2.2-0.6,2.2-1.4c0-0.8-0.5-1.1-2.1-1.4c-1.8-0.4-2.2-0.5-2.8-0.7c-1.1-0.5-1.8-1.5-1.8-2.8c0-2.2,2.1-3.9,4.7-3.9
			c1.8,0,3.5,0.7,4.7,1.8L457.4,455.2z"/>
		<path d="M470.6,464H468l-1.4-5.1l-1.2,5.1h-2.8l-2.3-8.5h2.3l1.4,5.8l1.4-5.8h2.4l1.5,5.8l1.4-5.8h2.4L470.6,464z"/>
		<path d="M474.3,464v-8.5h2.1l0.1,1c0.7-0.8,1.3-1.1,2-1.1c0.3,0,0.5,0,0.8,0.1v2.1c-0.1,0-0.3,0-0.3,0c-0.8,0-1.4,0.2-1.8,0.6
			c-0.6,0.5-0.7,0.9-0.7,2.1v3.8H474.3z"/>
		<path fill="#505050" d="M452.9,486h-2v-8.3H449v-1.6c1.7,0,2.2-0.4,2.2-1.9h1.7V486z"/>
		<path fill="#505050" d="M459.3,486h-2v-8.3h-1.9v-1.6c1.7,0,2.2-0.4,2.2-1.9h1.7V486z"/>
		<path fill="#505050" d="M464.2,485c0,0.6-0.5,1.1-1.1,1.1c-0.6,0-1.1-0.5-1.1-1.1c0-0.6,0.5-1.1,1.1-1.1
			C463.7,483.9,464.2,484.4,464.2,485z"/>
		<path fill="#505050" d="M475.8,480.1c0,3.6-1.8,6-4.5,6c-2.9,0-4.6-2.2-4.6-6c0-2.1,0.5-3.7,1.3-4.6c0.8-0.9,1.9-1.4,3.2-1.4
			C474,474,475.8,476.3,475.8,480.1z M468.5,480c0,2.8,0.9,4.2,2.6,4.2s2.7-1.5,2.7-4.1c0-2.8-1-4.3-2.7-4.3
			C469.4,475.8,468.5,477.2,468.5,480z"/>
	</g>
	<g>
		<path d="M559.9,464v-12h2.5v9.7h5.3v2.3H559.9z"/>
		<path d="M574,457.9c-0.7-0.6-1.2-0.8-1.9-0.8c-0.8,0-1.4,0.4-1.4,0.9c0,0.4,0.3,0.6,1.2,0.6c1.2,0.1,2,0.3,2.5,0.6
			c0.8,0.5,1.2,1.2,1.2,2.2c0,1.7-1.6,2.9-3.9,2.9c-1.4,0-2.7-0.5-3.6-1.4l1.5-1.5c1,0.8,1.5,1.1,2.3,1.1c0.8,0,1.4-0.4,1.4-0.9
			c0-0.2-0.1-0.5-0.3-0.6c-0.2-0.1-0.5-0.2-1-0.2c-1.5-0.2-2-0.3-2.5-0.7c-0.6-0.5-1-1.2-1-1.9c0-1.7,1.6-2.9,3.8-2.9
			c1.2,0,2.2,0.4,3.1,1.1L574,457.9z"/>
		<path d="M582.5,464v-4.8c0-1.2-0.5-1.8-1.5-1.8c-0.5,0-1,0.3-1.4,0.7c-0.3,0.4-0.4,0.8-0.4,1.5v4.4H577v-12h2.2v4.1
			c0.9-0.6,1.5-0.8,2.2-0.8c1.1,0,2,0.4,2.6,1.2c0.5,0.6,0.6,1.1,0.6,2.4v5H582.5z"/>
		<path fill="#505050" d="M562.9,486h-2v-8.3H559v-1.6c1.7,0,2.2-0.4,2.2-1.9h1.7V486z"/>
		<path fill="#505050" d="M574.9,480.1c0,3.6-1.8,6-4.5,6c-2.9,0-4.6-2.2-4.6-6c0-2.1,0.5-3.7,1.3-4.6c0.8-0.9,1.9-1.4,3.2-1.4
			C573.2,474,574.9,476.3,574.9,480.1z M567.7,480c0,2.8,0.9,4.2,2.6,4.2s2.7-1.5,2.7-4.1c0-2.8-1-4.3-2.7-4.3
			C568.6,475.8,567.7,477.2,567.7,480z"/>
		<path fill="#505050" d="M578.7,485c0,0.6-0.5,1.1-1.1,1.1c-0.6,0-1.1-0.5-1.1-1.1c0-0.6,0.5-1.1,1.1-1.1
			C578.3,483.9,578.7,484.4,578.7,485z"/>
		<path fill="#505050" d="M581.2,477.6c0.3-2.4,1.6-3.6,4.1-3.6c2.6,0,4.1,1.3,4.1,3.5c0,1.2-0.5,1.9-1.4,2.4c1,0.5,1.4,1.3,1.4,2.5
			c0,2.2-1.6,3.6-4.1,3.6c-2.5,0-3.9-1.1-4.4-3.5l2-0.3c0.2,0.9,0.3,1.2,0.7,1.5c0.4,0.4,1,0.6,1.7,0.6c1.3,0,2.1-0.7,2.1-1.9
			c0-0.6-0.3-1.2-0.7-1.4c-0.4-0.2-0.8-0.3-1.6-0.3h-0.6v-1.6h0.6c1.7,0,2.3-0.4,2.3-1.5c0-1.1-0.8-1.8-2.1-1.8
			c-0.9,0-1.5,0.3-1.9,0.8c-0.2,0.3-0.3,0.6-0.4,1.3L581.2,477.6z"/>
	</g>
	<g>
		<path d="M676.8,244l-2.6-4.6h-1.6v4.6h-2.6v-12h4.5c1.5,0,2.4,0.2,3.3,0.7c1,0.6,1.6,1.7,1.6,3c0,1-0.4,2-1.1,2.6
			c-0.4,0.3-0.7,0.5-1.4,0.8l2.8,4.9H676.8z M674.7,237.1c1.3,0,2-0.5,2-1.4c0-0.6-0.3-1.1-0.9-1.3c-0.3-0.1-0.6-0.2-1.2-0.2h-2.1
			v2.9H674.7z"/>
		<path d="M687,244v-0.6c-0.6,0.5-1.4,0.8-2.2,0.8c-2.2,0-3.8-1.9-3.8-4.6c0-2.6,1.5-4.3,3.8-4.3c1,0,1.7,0.3,2.3,0.8V232h2.3v12
			H687z M683.1,239.8c0,1.5,0.9,2.5,2.1,2.5c0.6,0,1.2-0.3,1.5-0.6c0.3-0.4,0.4-0.9,0.4-1.8c0-0.9-0.1-1.5-0.3-1.9
			c-0.3-0.5-0.9-0.7-1.6-0.7C683.9,237.2,683.1,238.2,683.1,239.8z"/>
		<path d="M691.3,244v-12h2.2v4.2c0.7-0.7,1.4-0.9,2.3-0.9c2.3,0,3.9,1.9,3.9,4.6c0,2.6-1.6,4.4-3.8,4.4c-0.9,0-1.6-0.2-2.4-0.9v0.7
			H691.3z M693.7,238.1c-0.2,0.3-0.3,0.7-0.3,1.5c0,1,0.1,1.5,0.4,1.8c0.4,0.5,1,0.7,1.7,0.7c1.2,0,2-0.9,2-2.4
			c0-1.1-0.2-1.7-0.7-2.1c-0.4-0.4-0.9-0.6-1.4-0.6C694.7,237.2,694.1,237.5,693.7,238.1z"/>
		<path fill="#505050" d="M672.9,266h-2v-8.3H669v-1.6c1.7,0,2.2-0.4,2.2-1.9h1.7V266z"/>
		<path fill="#505050" d="M684.9,260.1c0,3.6-1.8,6-4.5,6c-2.9,0-4.6-2.2-4.6-6c0-2.1,0.5-3.7,1.3-4.6c0.8-0.9,1.9-1.4,3.2-1.4
			C683.2,254,684.9,256.3,684.9,260.1z M677.7,260c0,2.8,0.9,4.2,2.6,4.2s2.7-1.5,2.7-4.1c0-2.8-1-4.3-2.7-4.3
			C678.6,255.8,677.7,257.2,677.7,260z"/>
		<path fill="#505050" d="M688.7,265c0,0.6-0.5,1.1-1.1,1.1c-0.6,0-1.1-0.5-1.1-1.1c0-0.6,0.5-1.1,1.1-1.1
			C688.3,263.9,688.7,264.4,688.7,265z"/>
		<path fill="#505050" d="M698.9,266h-2v-2.3h-6.3v-2.1l5.8-7.5h2.6v7.8h1.7v1.8h-1.7V266z M696.8,256.3l-4.2,5.5h4.2V256.3z"/>
	</g>
	<g>
		<path d="M678.2,354l-5.8-8.4v8.4h-2.5v-12h3.2l5.6,8.6V342h2.5v12H678.2z"/>
		<path d="M693.6,354h-2.7l-1.4-5.1l-1.2,5.1h-2.8l-2.3-8.5h2.3l1.4,5.8l1.4-5.8h2.4l1.5,5.8l1.4-5.8h2.4L693.6,354z"/>
		<path d="M708.2,354v-4.6c0-1.3-0.5-1.9-1.5-1.9c-0.6,0-1.1,0.3-1.4,0.7c-0.3,0.4-0.3,0.8-0.3,1.6v4.2h-2.3v-4.4
			c0-0.7-0.1-1.2-0.3-1.5c-0.2-0.4-0.7-0.6-1.3-0.6c-1.1,0-1.7,0.8-1.7,2.1v4.5h-2.2v-8.5h2.1l0.1,0.7c0.8-0.6,1.4-0.8,2.2-0.8
			c1.1,0,1.8,0.4,2.7,1.3c1-0.9,1.8-1.3,2.8-1.3c1.1,0,2.1,0.5,2.7,1.3c0.5,0.6,0.6,1.1,0.6,2.4v5H708.2z"/>
		<path fill="#505050" d="M672.9,376h-2v-8.3H669v-1.6c1.7,0,2.2-0.4,2.2-1.9h1.7V376z"/>
		<path fill="#505050" d="M679.3,376h-2v-8.3h-1.9v-1.6c1.7,0,2.2-0.4,2.2-1.9h1.7V376z"/>
		<path fill="#505050" d="M684.2,375c0,0.6-0.5,1.1-1.1,1.1c-0.6,0-1.1-0.5-1.1-1.1c0-0.6,0.5-1.1,1.1-1.1
			C683.7,373.9,684.2,374.4,684.2,375z"/>
		<path fill="#505050" d="M688.7,373c0.6,1,1.1,1.3,2,1.3c1,0,1.7-0.4,2.1-1.2c0.3-0.5,0.4-1.1,0.4-2.1c-0.9,0.8-1.6,1.1-2.8,1.1
			c-2.2,0-3.8-1.6-3.8-3.9c0-2.5,1.7-4.2,4.1-4.2c1.6,0,3,0.8,3.7,2.1c0.5,0.9,0.8,2.3,0.8,4.1c0,2.1-0.4,3.5-1.2,4.5
			c-0.8,1-2.1,1.5-3.4,1.5c-1.8,0-3.1-0.9-3.7-2.6L688.7,373z M688.7,368.1c0,1.3,0.9,2.3,2.1,2.3c1.3,0,2.3-0.9,2.3-2.1
			c0-1.5-0.9-2.5-2.2-2.5C689.6,365.8,688.7,366.7,688.7,368.1z"/>
	</g>
	<g>
		<path d="M677.5,464v-0.9c-0.8,0.8-1.7,1.1-2.9,1.1c-3.2,0-5.5-2.6-5.5-6.3c0-1.9,0.6-3.5,1.7-4.6c1.1-1.1,2.2-1.6,3.9-1.6
			c2.3,0,4.1,1.1,5,3l-2.3,1c-0.6-1.2-1.4-1.8-2.7-1.8c-1.9,0-3.2,1.6-3.2,4.1c0,2.4,1.3,4,3.3,4c1.5,0,2.7-1.1,2.7-2.5
			c0-0.1,0-0.2,0-0.3h-3v-2h5.2v6.8H677.5z"/>
		<path d="M682.1,464v-8.5h2.1l0.1,1c0.7-0.8,1.3-1.1,2-1.1c0.3,0,0.5,0,0.8,0.1v2.1c-0.1,0-0.3,0-0.3,0c-0.8,0-1.4,0.2-1.8,0.6
			c-0.6,0.5-0.7,0.9-0.7,2.1v3.8H682.1z"/>
		<path d="M693.9,464v-4.9c0-1.1-0.5-1.7-1.4-1.7c-0.6,0-1.1,0.3-1.4,0.7c-0.3,0.4-0.4,0.8-0.4,1.7v4.3h-2.3v-8.5h2.1l0.1,0.6
			c0.8-0.7,1.4-0.9,2.3-0.9c1.1,0,2,0.5,2.6,1.3c0.4,0.6,0.6,1.2,0.6,2.5v5H693.9z"/>
		<path fill="#505050" d="M672.9,486h-2v-8.3H669v-1.6c1.7,0,2.2-0.4,2.2-1.9h1.7V486z"/>
		<path fill="#505050" d="M684.9,480.1c0,3.6-1.8,6-4.5,6c-2.9,0-4.6-2.2-4.6-6c0-2.1,0.5-3.7,1.3-4.6c0.8-0.9,1.9-1.4,3.2-1.4
			C683.2,474,684.9,476.3,684.9,480.1z M677.7,480c0,2.8,0.9,4.2,2.6,4.2s2.7-1.5,2.7-4.1c0-2.8-1-4.3-2.7-4.3
			C678.6,475.8,677.7,477.2,677.7,480z"/>
		<path fill="#505050" d="M688.7,485c0,0.6-0.5,1.1-1.1,1.1c-0.6,0-1.1-0.5-1.1-1.1c0-0.6,0.5-1.1,1.1-1.1
			C688.3,483.9,688.7,484.4,688.7,485z"/>
		<path fill="#505050" d="M698.4,475.9L694,486h-2.1l4.3-10h-6.1v-1.9h8.2V475.9z"/>
	</g>
	<g>
		<path d="M787.2,244v-5h-5v5h-2.3v-12h2.3v4.7h5V232h2.3v12H787.2z"/>
		<path d="M796.8,244h-2.6l-2.8-8.5h2.4l1.7,6l1.9-6h2.5L796.8,244z"/>
		<path d="M808.3,242.4c0,1.3,0,1.6-0.2,2.1c-0.3,0.8-0.7,1.4-1.5,1.7c-0.7,0.3-1.6,0.5-2.4,0.5c-1.3,0-2.8-0.4-3.8-1l0.9-1.7
			c1.1,0.6,2,0.8,3,0.8c1.2,0,1.8-0.5,1.8-1.6c0-0.1,0-0.2,0-0.4c-0.9,0.5-1.4,0.6-2.1,0.6c-2.1,0-3.7-1.7-3.7-4
			c0-1.5,0.6-2.8,1.8-3.5c0.6-0.4,1.4-0.6,2.1-0.6c0.7,0,1.3,0.2,1.9,0.6l0.1-0.4h2.1V242.4z M802.5,239.5c0,1.3,0.7,2.1,1.9,2.1
			c1.2,0,1.8-0.7,1.8-2.2c0-0.9-0.2-1.4-0.6-1.7c-0.3-0.2-0.7-0.4-1.1-0.4C803.3,237.2,802.5,238.2,802.5,239.5z"/>
		<path fill="#505050" d="M787.2,260.6c0.4,0.5,0.6,1.2,0.6,2c0,2.1-1.7,3.5-4.2,3.5c-2.5,0-4.2-1.5-4.2-3.6c0-1.2,0.5-2,1.6-2.6
			c-1-0.6-1.5-1.4-1.5-2.5c0-2,1.6-3.4,4-3.4c2.4,0,4,1.4,4,3.3c0,1.2-0.5,2-1.4,2.5C786.7,260.1,786.9,260.3,787.2,260.6z
			 M781.3,262.5c0,1.1,0.9,1.8,2.3,1.8c1.4,0,2.2-0.7,2.2-1.7c0-1.2-0.8-1.9-2.2-1.9C782.2,260.7,781.3,261.4,781.3,262.5z
			 M781.5,257.5c0,1,0.7,1.6,2,1.6c1.3,0,2.1-0.6,2.1-1.6c0-1-0.8-1.7-2.1-1.7C782.3,255.8,781.5,256.5,781.5,257.5z"/>
		<path fill="#505050" d="M791.8,265c0,0.6-0.5,1.1-1.1,1.1c-0.6,0-1.1-0.5-1.1-1.1c0-0.6,0.5-1.1,1.1-1.1
			C791.3,263.9,791.8,264.4,791.8,265z"/>
		<path fill="#505050" d="M794.3,257.6c0.3-2.4,1.6-3.6,4.1-3.6c2.6,0,4.1,1.3,4.1,3.5c0,1.2-0.5,1.9-1.4,2.4c1,0.5,1.4,1.3,1.4,2.5
			c0,2.2-1.6,3.6-4.1,3.6c-2.5,0-3.9-1.1-4.4-3.5l2-0.3c0.2,0.9,0.3,1.2,0.7,1.5c0.4,0.4,1,0.6,1.7,0.6c1.3,0,2.1-0.7,2.1-1.9
			c0-0.6-0.3-1.2-0.7-1.4c-0.4-0.2-0.8-0.3-1.6-0.3h-0.6v-1.6h0.6c1.7,0,2.3-0.4,2.3-1.5c0-1.1-0.8-1.8-2.1-1.8
			c-0.9,0-1.5,0.3-1.9,0.8c-0.2,0.3-0.3,0.6-0.4,1.3L794.3,257.6z"/>
	</g>
	<g>
		<path d="M784.7,342c1.2,0,2,0.2,2.7,0.6c1,0.6,1.6,1.6,1.6,2.8c0,1-0.4,1.7-1.3,2.3c0.6,0.3,0.8,0.5,1.1,0.7
			c0.5,0.4,0.7,1.2,0.7,2c0,1.4-0.5,2.3-1.8,3c-0.9,0.5-1.8,0.7-3,0.7h-4.8v-12H784.7z M784.4,346.9c0.6,0,1-0.1,1.3-0.3
			c0.5-0.2,0.8-0.7,0.8-1.2c0-0.4-0.3-0.9-0.6-1.1c-0.3-0.2-0.6-0.2-1.4-0.2h-2.2v2.7H784.4z M784.9,351.7c0.6,0,1-0.1,1.3-0.2
			c0.5-0.2,0.8-0.7,0.8-1.3c0-0.6-0.3-1-0.9-1.3c-0.4-0.2-0.7-0.2-1.6-0.2h-2.2v3H784.9z"/>
		<path d="M798.5,354.2c-0.2,0-0.3,0-0.4,0c-0.6,0-1.2-0.3-1.7-0.9c-0.5,0.6-1.1,0.9-2.1,0.9c-1.9,0-3.3-1.2-3.3-2.8
			c0-0.8,0.4-1.6,1.1-2c0.8-0.5,2-0.7,4-0.8c0-0.6,0-0.7-0.1-0.9c-0.2-0.3-0.6-0.5-1.2-0.5c-0.8,0-1.8,0.3-2.7,0.9l-1.1-1.6
			c1.3-0.8,2.4-1.2,3.9-1.2c1.1,0,2,0.3,2.6,0.7c0.7,0.6,0.9,1.1,0.9,2.5v2.8c0,1,0.1,1.2,0.9,1.4L798.5,354.2z M796,350.2
			c-0.6,0-1.1,0.1-1.6,0.2c-0.9,0.2-1.2,0.5-1.2,1c0,0.6,0.5,1,1.3,1c0.9,0,1.5-0.5,1.5-1.2V350.2z"/>
		<path d="M800.5,354v-8.5h2.1l0.1,1c0.7-0.8,1.3-1.1,2-1.1c0.3,0,0.5,0,0.8,0.1v2.1c-0.1,0-0.3,0-0.3,0c-0.8,0-1.4,0.2-1.8,0.6
			c-0.6,0.5-0.7,0.9-0.7,2.1v3.8H800.5z"/>
		<path fill="#505050" d="M782.9,376h-2v-8.3H779v-1.6c1.7,0,2.2-0.4,2.2-1.9h1.7V376z"/>
		<path fill="#505050" d="M793.4,376h-2v-2.3h-6.3v-2.1l5.8-7.5h2.6v7.8h1.7v1.8h-1.7V376z M791.4,366.3l-4.2,5.5h4.2V366.3z"/>
		<path fill="#505050" d="M798.8,375c0,0.6-0.5,1.1-1.1,1.1c-0.6,0-1.1-0.5-1.1-1.1c0-0.6,0.5-1.1,1.1-1.1
			C798.3,373.9,798.8,374.4,798.8,375z"/>
		<path fill="#505050" d="M810.3,370.1c0,3.6-1.8,6-4.5,6c-2.9,0-4.6-2.2-4.6-6c0-2.1,0.5-3.7,1.3-4.6c0.8-0.9,1.9-1.4,3.2-1.4
			C808.5,364,810.3,366.3,810.3,370.1z M803.1,370c0,2.8,0.9,4.2,2.6,4.2s2.7-1.5,2.7-4.1c0-2.8-1-4.3-2.7-4.3
			C804,365.8,803.1,367.2,803.1,370z"/>
	</g>
	<g>
		<path d="M784.7,452c1.2,0,2,0.2,2.7,0.6c1,0.6,1.6,1.6,1.6,2.8c0,1-0.4,1.7-1.3,2.3c0.6,0.3,0.8,0.5,1.1,0.7
			c0.5,0.4,0.7,1.2,0.7,2c0,1.4-0.5,2.3-1.8,3c-0.9,0.5-1.8,0.7-3,0.7h-4.8v-12H784.7z M784.4,456.9c0.6,0,1-0.1,1.3-0.3
			c0.5-0.2,0.8-0.7,0.8-1.2c0-0.4-0.3-0.9-0.6-1.1c-0.3-0.2-0.6-0.2-1.4-0.2h-2.2v2.7H784.4z M784.9,461.7c0.6,0,1-0.1,1.3-0.2
			c0.5-0.2,0.8-0.7,0.8-1.3c0-0.6-0.3-1-0.9-1.3c-0.4-0.2-0.7-0.2-1.6-0.2h-2.2v3H784.9z"/>
		<path d="M796.5,464l-1.8-2.6L793,464h-2.5l2.9-4.4l-2.7-4.1h2.6l1.4,2.1l1.4-2.1h2.5l-2.6,4.1l3,4.4H796.5z"/>
		<path d="M804.1,463.9c-0.5,0.1-0.9,0.2-1.5,0.2c-1,0-1.7-0.2-2.1-0.6c-0.3-0.4-0.4-0.9-0.4-2.2V452h2.3v8.9c0,1,0.2,1.2,0.9,1.2
			c0.2,0,0.2,0,0.5-0.1l0.1,0L804.1,463.9z"/>
		<path fill="#505050" d="M787.2,480.6c0.4,0.5,0.6,1.2,0.6,2c0,2.1-1.7,3.5-4.2,3.5c-2.5,0-4.2-1.5-4.2-3.6c0-1.2,0.5-2,1.6-2.6
			c-1-0.6-1.5-1.4-1.5-2.5c0-2,1.6-3.4,4-3.4c2.4,0,4,1.4,4,3.3c0,1.2-0.5,2-1.4,2.5C786.7,480.1,786.9,480.3,787.2,480.6z
			 M781.3,482.5c0,1.1,0.9,1.8,2.3,1.8c1.4,0,2.2-0.7,2.2-1.7c0-1.2-0.8-1.9-2.2-1.9C782.2,480.7,781.3,481.4,781.3,482.5z
			 M781.5,477.5c0,1,0.7,1.6,2,1.6c1.3,0,2.1-0.6,2.1-1.6c0-1-0.8-1.7-2.1-1.7C782.3,475.8,781.5,476.5,781.5,477.5z"/>
		<path fill="#505050" d="M791.8,485c0,0.6-0.5,1.1-1.1,1.1c-0.6,0-1.1-0.5-1.1-1.1c0-0.6,0.5-1.1,1.1-1.1
			C791.3,483.9,791.8,484.4,791.8,485z"/>
		<path fill="#505050" d="M794.3,477.6c0.3-2.4,1.6-3.6,4.1-3.6c2.6,0,4.1,1.3,4.1,3.5c0,1.2-0.5,1.9-1.4,2.4c1,0.5,1.4,1.3,1.4,2.5
			c0,2.2-1.6,3.6-4.1,3.6c-2.5,0-3.9-1.1-4.4-3.5l2-0.3c0.2,0.9,0.3,1.2,0.7,1.5c0.4,0.4,1,0.6,1.7,0.6c1.3,0,2.1-0.7,2.1-1.9
			c0-0.6-0.3-1.2-0.7-1.4c-0.4-0.2-0.8-0.3-1.6-0.3h-0.6v-1.6h0.6c1.7,0,2.3-0.4,2.3-1.5c0-1.1-0.8-1.8-2.1-1.8
			c-0.9,0-1.5,0.3-1.9,0.8c-0.2,0.3-0.3,0.6-0.4,1.3L794.3,477.6z"/>
	</g>
	<g>
	</g>
	<g>
	</g>
	<g>
	</g>
	<g>
	</g>
	<g>
	</g>
	<g>
	</g>
	<g>
	</g>
	<g>
	</g>
	<g>
	</g>
	<g>
	</g>
	<g>
	</g>
	<g>
	</g>
	<g>
	</g>
	<g>
	</g>
	<g>
	</g>
</g>
</svg>
