<?xml version="1.0" encoding="UTF-8" standalone="no"?>
<!DOCTYPE svg PUBLIC "-//W3C//DTD SVG 1.1//EN" "http://www.w3.org/Graphics/SVG/1.1/DTD/svg11.dtd">
<svg width="100%" height="100%" viewBox="0 0 150 150" version="1.1" xmlns="http://www.w3.org/2000/svg" xmlns:xlink="http://www.w3.org/1999/xlink" xml:space="preserve" xmlns:serif="http://www.serif.com/" style="fill-rule:evenodd;clip-rule:evenodd;">
    <g transform="matrix(1,0,0,1,25,25)">
        <rect x="0" y="0" width="100" height="100" style="fill:none;stroke:rgb(255,0,0);stroke-width:1px;"/>
        <path id="E09000002" d="M-0.001,0.454L-0.001,96.803C2.349,97.196 4.504,97.685 6.755,98.078C12.337,99.255 17.625,100.333 24.48,100.333L99.878,100.333L99.878,0.454L-0.001,0.454Z" style="fill:none;stroke:black;stroke-width:0.1px;"/>
        <path id="E09000025" d="M2.351,95.967C10.379,101.46 20.464,108.322 40.148,108.322C52.484,108.322 61.494,104.791 70.209,101.36C77.747,98.418 84.799,95.573 93.022,95.573C95.471,95.573 97.724,95.672 99.878,95.868L99.878,0.453L-0.001,0.453L-0.001,94.399C0.783,94.889 1.568,95.476 2.351,95.967Z" style="fill:none;stroke:black;stroke-width:0.1px;"/>
        <path id="E09000030" d="M15.177,102.84C19.584,101.075 23.012,97.736 26.242,94.401C31.04,89.59 36.523,84.093 45.434,84.879C57.969,86.056 59.142,102.253 59.731,110.108C60.026,114.036 61.396,117.177 63.747,119.14C65.802,120.907 68.643,121.593 72.069,121.201C77.846,120.61 81.077,118.353 80.295,108.734L80.295,108.145C79.805,102.254 78.827,89.984 90.674,88.806C94.1,88.51 97.038,89.002 99.879,90.181L99.879,0.453L0,0.453L0,106.177C5.385,105.789 10.281,104.806 15.177,102.84Z" style="fill:none;stroke:black;stroke-width:0.1px;"/>
        <path id="E09000028" d="M86.858,4.5L86.66,4.5L4.114,-7.2C2.645,-7.297 1.37,-7.403 -0.001,-7.5L-0.001,100.332L99.879,100.332L99.879,5.4C95.767,5.302 91.459,4.987 86.858,4.5Z" style="fill:none;stroke:black;stroke-width:0.1px;"/>
        <path id="E09000004" d="M5.09,-1.564C3.427,-1.954 1.762,-2.249 -0.001,-2.543L-0.001,100.332L99.878,100.332L99.878,0.883L24.48,0.883C16.842,0.883 10.867,-0.39 5.09,-1.564Z" style="fill:none;stroke:black;stroke-width:0.1px;"/>
        <path id="E09000022" d="M92.044,-9.535C81.763,-9.535 74.123,-5.248 65.997,-0.764C57.381,4.011 48.469,8.981 36.228,8.981C26.925,8.981 20.953,6.35 15.176,3.817C10.574,1.77 6.168,-0.18 0,-0.667L0,100.332L99.879,100.332L99.879,-9.048C97.429,-9.341 94.882,-9.535 92.044,-9.535Z" style="fill:none;stroke:black;stroke-width:0.1px;"/>
        <path id="E09000033" d="M18.31,105.809C23.596,108.163 28.592,110.322 36.229,110.322C46.412,110.322 54.15,106.005 62.178,101.494C70.795,96.687 79.705,91.684 92.045,91.684C94.884,91.684 97.43,91.88 99.878,92.174L99.878,0.454L-0.001,0.454L-0.001,100.61C7.832,101.101 13.12,103.456 18.31,105.809Z" style="fill:none;stroke:black;stroke-width:0.1px;"/>
        <path id="E09000023" d="M91.554,-11.583C88.421,-11.291 87.441,-9.637 88.127,-0.788L88.224,-0.205C89.204,12.341 84.111,19.342 72.949,20.509C72.068,20.606 71.285,20.606 70.405,20.606C65.9,20.606 61.885,19.244 58.752,16.619C54.835,13.313 52.387,8.256 51.994,2.324C51.408,-6.235 50.037,-14.986 44.75,-15.473C39.755,-15.959 36.72,-13.138 31.823,-8.276C28.2,-4.677 24.088,-0.592 18.114,1.838C12.239,4.172 6.365,5.339 -0.001,5.726L-0.001,100.331L99.878,100.331L99.878,-9.444C97.135,-10.998 94.49,-11.874 91.554,-11.583Z" style="fill:none;stroke:black;stroke-width:0.1px;"/>
        <path id="E09000001" d="M4.895,93.665L5.09,93.665L87.639,105.439C92.044,105.929 96.059,106.224 99.878,106.322L99.878,0.451L-0.001,0.451L-0.001,93.175C1.566,93.372 3.131,93.566 4.895,93.665Z" style="fill:none;stroke:black;stroke-width:0.1px;"/>
        <path id="E09000011" d="M93.024,-4.538C86.269,-4.538 80.199,-2.092 73.147,0.649C64.235,4.171 54.051,8.184 40.148,8.184C19.782,8.184 8.323,1.432 0,-4.149L0,100.335L99.879,100.335L99.879,-4.246C97.726,-4.44 95.472,-4.538 93.024,-4.538Z" style="fill:none;stroke:black;stroke-width:0.1px;"/>
    </g>
</svg>
